<svg width="256" height="256" viewBox="0 0 256 256" fill="none" xmlns="http://www.w3.org/2000/svg">
<rect width="256" height="256" fill="#FF5187"/>
<g clip-path="url(#clip0)">
<path d="M128 244.122C192.132 244.122 244.122 192.132 244.122 128C244.122 63.8678 192.132 11.8784 128 11.8784C63.8678 11.8784 11.8784 63.8678 11.8784 128C11.8784 192.132 63.8678 244.122 128 244.122Z" fill="#1D1F21"/>
<path opacity="0.5" d="M128.205 197.427C166.435 197.427 197.427 166.435 197.427 128.205C197.427 89.9743 166.435 58.9824 128.205 58.9824C89.9743 58.9824 58.9824 89.9743 58.9824 128.205C58.9824 166.435 89.9743 197.427 128.205 197.427Z" stroke="url(#paint0_angular)" stroke-width="18"/>
<path opacity="0.5" d="M128.205 224.461C181.366 224.461 224.461 181.366 224.461 128.205C224.461 75.0441 181.366 31.9488 128.205 31.9488C75.0441 31.9488 31.9488 75.0441 31.9488 128.205C31.9488 181.366 75.0441 224.461 128.205 224.461Z" stroke="url(#paint1_angular)" stroke-width="18"/>
<path opacity="0.5" d="M128.205 185.651C159.932 185.651 185.651 159.932 185.651 128.205C185.651 96.478 159.932 70.7584 128.205 70.7584C96.478 70.7584 70.7584 96.478 70.7584 128.205C70.7584 159.932 96.478 185.651 128.205 185.651Z" stroke="#676C74" stroke-width="1.5"/>
<path opacity="0.5" d="M128.205 193.843C164.456 193.843 193.843 164.456 193.843 128.205C193.843 91.9537 164.456 62.5664 128.205 62.5664C91.9537 62.5664 62.5664 91.9537 62.5664 128.205C62.5664 164.456 91.9537 193.843 128.205 193.843Z" stroke="#676C74" stroke-width="1.5"/>
<path opacity="0.5" d="M128.205 200.806C168.302 200.806 200.806 168.302 200.806 128.205C200.806 88.1081 168.302 55.6032 128.205 55.6032C88.1081 55.6032 55.6032 88.1081 55.6032 128.205C55.6032 168.302 88.1081 200.806 128.205 200.806Z" stroke="#676C74" stroke-width="1.5"/>
<path opacity="0.5" d="M128.205 207.77C172.147 207.77 207.77 172.147 207.77 128.205C207.77 84.2624 172.147 48.64 128.205 48.64C84.2624 48.64 48.64 84.2624 48.64 128.205C48.64 172.147 84.2624 207.77 128.205 207.77Z" stroke="#676C74" stroke-width="1.5"/>
<path opacity="0.5" d="M128.205 215.552C176.445 215.552 215.552 176.445 215.552 128.205C215.552 79.9643 176.445 40.8576 128.205 40.8576C79.9643 40.8576 40.8576 79.9643 40.8576 128.205C40.8576 176.445 79.9643 215.552 128.205 215.552Z" stroke="#676C74" stroke-width="1.5"/>
<path opacity="0.5" d="M128.205 221.286C179.612 221.286 221.286 179.612 221.286 128.205C221.286 76.7973 179.612 35.1232 128.205 35.1232C76.7973 35.1232 35.1232 76.7973 35.1232 128.205C35.1232 179.612 76.7973 221.286 128.205 221.286Z" stroke="#676C74" stroke-width="1.5"/>
<path opacity="0.5" d="M128.205 228.25C183.458 228.25 228.25 183.458 228.25 128.205C228.25 72.9516 183.458 28.16 128.205 28.16C72.9516 28.16 28.16 72.9516 28.16 128.205C28.16 183.458 72.9516 228.25 128.205 228.25Z" stroke="#676C74" stroke-width="1.5"/>
<path opacity="0.5" d="M128.205 234.803C187.078 234.803 234.803 187.078 234.803 128.205C234.803 69.3322 187.078 21.6064 128.205 21.6064C69.3322 21.6064 21.6064 69.3322 21.6064 128.205C21.6064 187.078 69.3322 234.803 128.205 234.803Z" stroke="#676C74" stroke-width="1.5"/>
<path d="M128 242.483C191.227 242.483 242.483 191.227 242.483 128C242.483 64.7727 191.227 13.5168 128 13.5168C64.7727 13.5168 13.5168 64.7727 13.5168 128C13.5168 191.227 64.7727 242.483 128 242.483Z" stroke="#727B84" stroke-width="4"/>
<path d="M128.205 178.995C156.256 178.995 178.995 156.256 178.995 128.205C178.995 100.154 156.256 77.4144 128.205 77.4144C100.154 77.4144 77.4144 100.154 77.4144 128.205C77.4144 156.256 100.154 178.995 128.205 178.995Z" fill="url(#paint2_angular)"/>
<path d="M128.205 178.995C156.256 178.995 178.995 156.256 178.995 128.205C178.995 100.154 156.256 77.4144 128.205 77.4144C100.154 77.4144 77.4144 100.154 77.4144 128.205C77.4144 156.256 100.154 178.995 128.205 178.995Z" fill="url(#paint3_angular)"/>
<path d="M128.205 166.912C149.582 166.912 166.912 149.582 166.912 128.205C166.912 106.827 149.582 89.4976 128.205 89.4976C106.827 89.4976 89.4976 106.827 89.4976 128.205C89.4976 149.582 106.827 166.912 128.205 166.912Z" fill="#F9CF00" stroke="#E0A203"/>
<path d="M128.205 130.765C129.619 130.765 130.765 129.619 130.765 128.205C130.765 126.791 129.619 125.645 128.205 125.645C126.791 125.645 125.645 126.791 125.645 128.205C125.645 129.619 126.791 130.765 128.205 130.765Z" fill="#BAB1AA" stroke="#E0A203" stroke-width="0.5"/>
<path d="M193.782 136.931C194.857 138.792 197.236 139.429 199.098 138.355C200.959 137.28 201.596 134.9 200.522 133.039C199.447 131.178 197.067 130.541 195.206 131.615C193.345 132.69 192.708 135.069 193.782 136.931Z" fill="white"/>
<path d="M207.865 139.205C208.94 141.066 211.32 141.704 213.181 140.629C215.042 139.555 215.68 137.175 214.605 135.314C213.531 133.453 211.151 132.815 209.29 133.89C207.429 134.964 206.791 137.344 207.865 139.205Z" fill="white"/>
<path d="M220.625 140.825C221.699 142.686 224.079 143.324 225.94 142.249C227.801 141.175 228.439 138.795 227.365 136.934C226.29 135.073 223.91 134.435 222.049 135.51C220.188 136.584 219.55 138.964 220.625 140.825Z" fill="white"/>
<path d="M68.2565 162.816C87.3717 195.925 129.707 207.268 162.816 188.153C195.925 169.038 207.268 126.702 188.153 93.5936C169.038 60.4851 126.702 49.1412 93.5936 68.2565C60.4851 87.3717 49.1412 129.707 68.2565 162.816Z" stroke="url(#paint4_angular)" stroke-width="7"/>
<path d="M55.8411 169.984C78.9151 209.949 130.019 223.643 169.984 200.569C209.949 177.495 223.643 126.391 200.569 86.4257C177.494 46.4603 126.391 32.7671 86.4256 55.8412C46.4602 78.9152 32.7671 130.019 55.8411 169.984Z" stroke="url(#paint5_angular)" stroke-width="7"/>
<path d="M44.8447 176.333C71.425 222.371 130.294 238.145 176.333 211.565C222.371 184.985 238.145 126.115 211.565 80.0768C184.985 34.0383 126.115 18.2643 80.0768 44.8447C34.0383 71.4251 18.2643 130.294 44.8447 176.333Z" stroke="url(#paint6_angular)" stroke-width="7"/>
</g>
<defs>
<radialGradient id="paint0_angular" cx="0" cy="0" r="1" gradientUnits="userSpaceOnUse" gradientTransform="translate(128.205 128.205) rotate(-20.908) scale(78.048)">
<stop offset="0.00827795" stop-color="#343434"/>
<stop offset="0.325065" stop-color="#262626" stop-opacity="0"/>
<stop offset="0.652023" stop-color="#262626" stop-opacity="0"/>
</radialGradient>
<radialGradient id="paint1_angular" cx="0" cy="0" r="1" gradientUnits="userSpaceOnUse" gradientTransform="translate(128.205 128.205) rotate(-20.908) scale(106.987)">
<stop offset="0.00827795" stop-color="#262626"/>
<stop offset="0.325065" stop-color="#262626" stop-opacity="0"/>
<stop offset="0.593797" stop-opacity="0"/>
<stop offset="0.652023" stop-color="#262626" stop-opacity="0"/>
</radialGradient>
<radialGradient id="paint2_angular" cx="0" cy="0" r="1" gradientUnits="userSpaceOnUse" gradientTransform="translate(128.205 128.205) rotate(16.7336) scale(65.4398)">
<stop offset="0.000334566" stop-color="#494F52"/>
<stop offset="0.0392336" stop-color="#323232"/>
</radialGradient>
<radialGradient id="paint3_angular" cx="0" cy="0" r="1" gradientUnits="userSpaceOnUse" gradientTransform="translate(128.205 128.205) rotate(7.35238) scale(51.2115)">
<stop offset="0.31857"/>
<stop offset="0.759293" stop-opacity="0"/>
</radialGradient>
<radialGradient id="paint4_angular" cx="0" cy="0" r="1" gradientUnits="userSpaceOnUse" gradientTransform="translate(128.205 128.205) rotate(39.5936) scale(73.4204)">
<stop offset="0.57895" stop-color="white" stop-opacity="0"/>
<stop offset="0.904104" stop-color="white"/>
<stop offset="0.910051" stop-color="white" stop-opacity="0"/>
</radialGradient>
<radialGradient id="paint5_angular" cx="0" cy="0" r="1" gradientUnits="userSpaceOnUse" gradientTransform="translate(128.205 128.205) rotate(39.5936) scale(88.2696)">
<stop offset="0.577683" stop-color="white" stop-opacity="0"/>
<stop offset="0.906595" stop-color="white"/>
<stop offset="0.910051" stop-color="white" stop-opacity="0"/>
</radialGradient>
<radialGradient id="paint6_angular" cx="0" cy="0" r="1" gradientUnits="userSpaceOnUse" gradientTransform="translate(128.205 128.205) rotate(39.5936) scale(100.644)">
<stop offset="0.578937" stop-color="white" stop-opacity="0"/>
<stop offset="0.906595" stop-color="white"/>
<stop offset="0.910051" stop-color="white" stop-opacity="0"/>
</radialGradient>
<clipPath id="clip0">
<rect width="256" height="256" fill="white"/>
</clipPath>
</defs>
</svg>
