<svg width="256" height="256" viewBox="0 0 256 256" fill="none" xmlns="http://www.w3.org/2000/svg">
<g opacity="0.9">
<path fill-rule="evenodd" clip-rule="evenodd" d="M229.333 128C229.333 183.965 183.965 229.333 128 229.333C72.0352 229.333 26.6667 183.965 26.6667 128C26.6667 72.0351 72.0352 26.6666 128 26.6666C183.965 26.6666 229.333 72.0351 229.333 128ZM169.455 128C169.455 150.895 150.895 169.454 128 169.454C105.105 169.454 86.5455 150.895 86.5455 128C86.5455 105.105 105.105 86.5454 128 86.5454C150.895 86.5454 169.455 105.105 169.455 128ZM138.353 70.4011C126.954 68.1353 115.138 69.2981 104.4 73.7428C93.662 78.1874 84.4837 85.7142 78.026 95.3719C71.5683 105.03 68.1213 116.384 68.1213 128C68.1213 139.616 71.5683 150.97 78.026 160.628C84.4837 170.286 93.662 177.813 104.4 182.257C115.138 186.702 126.953 187.865 138.353 185.599C149.752 183.333 160.223 177.74 168.442 169.527C169.792 168.179 169.792 165.991 168.444 164.642C167.095 163.292 164.908 163.292 163.558 164.64C156.306 171.887 147.066 176.823 137.006 178.822C126.946 180.822 116.518 179.796 107.042 175.873C97.5663 171.951 89.4673 165.309 83.7694 156.788C78.0715 148.266 75.0304 138.248 75.0304 128C75.0304 117.752 78.0715 107.734 83.7694 99.2123C89.4673 90.6909 97.5663 84.0489 107.042 80.1266C116.518 76.2043 126.946 75.178 137.006 77.1776C147.066 79.1772 156.306 84.1128 163.558 91.3599C164.908 92.7085 167.095 92.7077 168.444 91.3582C169.792 90.0086 169.792 87.8213 168.442 86.4727C160.223 78.2597 149.752 72.6669 138.353 70.4011ZM99.4249 58.8483C113.121 53.1839 128.191 51.7019 142.73 54.5895C157.269 57.4772 170.625 64.605 181.108 75.0723C182.458 76.4204 182.459 78.6077 181.111 79.9578C179.763 81.3079 177.576 81.3095 176.226 79.9615C166.71 70.4596 154.585 63.9881 141.384 61.3663C128.183 58.7444 114.5 60.0901 102.066 65.2329C89.631 70.3757 79.0038 79.0844 71.5274 90.2569C64.0509 101.429 60.0607 114.564 60.0607 128C60.0607 141.436 64.0509 154.571 71.5273 165.743C79.0038 176.916 89.6309 185.624 102.065 190.767C114.5 195.91 128.183 197.256 141.384 194.634C154.585 192.012 166.71 185.54 176.226 176.039C177.576 174.69 179.763 174.692 181.111 176.042C182.459 177.392 182.458 179.58 181.108 180.928C170.625 191.395 157.269 198.523 142.73 201.41C128.191 204.298 113.121 202.816 99.4249 197.152C85.729 191.487 74.0222 181.894 65.7853 169.586C57.5484 157.277 53.1516 142.805 53.1516 128C53.1516 113.195 57.5484 98.7233 65.7853 86.4144C74.0222 74.1056 85.7291 64.5128 99.4249 58.8483ZM145.956 38.778C128.277 35.2684 109.952 37.0696 93.298 43.954C76.6442 50.8384 62.4088 62.4973 52.3929 77.4572C42.3768 92.4173 37.0304 110.006 37.0304 128C37.0304 145.994 42.3768 163.583 52.3928 178.543C62.4088 193.503 76.6441 205.161 93.2979 212.046C109.952 218.93 128.277 220.731 145.956 217.222C163.635 213.712 179.875 205.049 192.622 192.328C193.973 190.98 193.975 188.793 192.627 187.442C191.279 186.092 189.092 186.09 187.742 187.437C175.961 199.194 160.952 207.201 144.61 210.445C128.269 213.689 111.33 212.024 95.9374 205.661C80.5445 199.298 67.3891 188.522 58.134 174.699C48.8789 160.875 43.9395 144.624 43.9395 128C43.9395 111.376 48.8789 95.1245 58.134 81.301C67.3892 67.4774 80.5446 56.7022 95.9374 50.339C111.33 43.9758 128.269 42.3108 144.61 45.5548C160.952 48.7989 175.961 56.806 187.742 68.5626C189.092 69.9104 191.279 69.9082 192.627 68.5577C193.975 67.2073 193.973 65.02 192.622 63.6723C179.875 50.9505 163.635 42.2876 145.956 38.778Z" fill="white"/>
<path fill-rule="evenodd" clip-rule="evenodd" d="M104.4 73.7427C115.138 69.2981 126.954 68.1353 138.353 70.4011C149.752 72.6669 160.223 78.2597 168.442 86.4727C169.792 87.8213 169.792 90.0086 168.444 91.3581C167.095 92.7077 164.908 92.7085 163.558 91.3599C156.306 84.1128 147.066 79.1772 137.006 77.1776C126.946 75.178 116.518 76.2043 107.042 80.1266C97.5663 84.0489 89.4674 90.6909 83.7694 99.2123C78.0715 107.734 75.0304 117.752 75.0304 128C75.0304 138.248 78.0715 148.266 83.7694 156.788C89.4673 165.309 97.5663 171.951 107.042 175.873C116.518 179.796 126.946 180.822 137.006 178.822C147.066 176.823 156.306 171.887 163.558 164.64C164.908 163.291 167.095 163.292 168.444 164.642C169.792 165.991 169.792 168.179 168.442 169.527C160.223 177.74 149.752 183.333 138.353 185.599C126.954 187.865 115.138 186.702 104.4 182.257C93.662 177.813 84.4837 170.286 78.026 160.628C71.5683 150.97 68.1213 139.616 68.1213 128C68.1213 116.384 71.5683 105.03 78.026 95.3719C84.4837 85.7142 93.662 78.1874 104.4 73.7427Z" fill="url(#paint0_angular)"/>
<path fill-rule="evenodd" clip-rule="evenodd" d="M99.4249 58.8483C113.121 53.1839 128.191 51.7019 142.73 54.5895C157.269 57.4772 170.625 64.6049 181.108 75.0723C182.458 76.4204 182.459 78.6077 181.111 79.9578C179.763 81.3079 177.576 81.3095 176.226 79.9614C166.71 70.4596 154.585 63.9881 141.384 61.3662C128.183 58.7444 114.5 60.0901 102.065 65.2329C89.631 70.3757 79.0038 79.0844 71.5273 90.2569C64.0509 101.429 60.0607 114.564 60.0607 128C60.0607 141.436 64.0509 154.571 71.5273 165.743C79.0038 176.916 89.6309 185.624 102.065 190.767C114.5 195.91 128.183 197.256 141.384 194.634C154.585 192.012 166.71 185.54 176.226 176.039C177.576 174.69 179.763 174.692 181.111 176.042C182.459 177.392 182.458 179.58 181.108 180.928C170.624 191.395 157.269 198.523 142.73 201.41C128.191 204.298 113.121 202.816 99.4249 197.152C85.729 191.487 74.0222 181.894 65.7853 169.586C57.5484 157.277 53.1516 142.805 53.1516 128C53.1516 113.195 57.5484 98.7233 65.7853 86.4144C74.0222 74.1055 85.7291 64.5128 99.4249 58.8483Z" fill="url(#paint1_angular)"/>
<path fill-rule="evenodd" clip-rule="evenodd" d="M93.2979 43.954C109.952 37.0696 128.276 35.2685 145.955 38.778C163.635 42.2876 179.875 50.9505 192.622 63.6723C193.972 65.02 193.975 67.2073 192.627 68.5577C191.279 69.9082 189.092 69.9104 187.741 68.5626C175.961 56.806 160.952 48.7989 144.61 45.5549C128.269 42.3108 111.33 43.9758 95.9373 50.3391C80.5445 56.7022 67.389 67.4775 58.1339 81.301C48.8788 95.1246 43.9394 111.376 43.9394 128C43.9394 144.624 48.8788 160.875 58.1339 174.699C67.389 188.522 80.5444 199.298 95.9373 205.661C111.33 212.024 128.269 213.689 144.61 210.445C160.952 207.201 175.961 199.194 187.741 187.437C189.092 186.09 191.279 186.092 192.627 187.442C193.975 188.793 193.972 190.98 192.622 192.328C179.875 205.049 163.635 213.712 145.955 217.222C128.276 220.731 109.952 218.93 93.2978 212.046C76.644 205.161 62.4087 193.503 52.3927 178.543C42.3767 163.583 37.0303 145.994 37.0303 128C37.0303 110.006 42.3767 92.4173 52.3928 77.4573C62.4087 62.4973 76.6441 50.8384 93.2979 43.954Z" fill="url(#paint2_angular)"/>
</g>
<defs>
<radialGradient id="paint0_angular" cx="0" cy="0" r="1" gradientUnits="userSpaceOnUse" gradientTransform="translate(126.888 128) rotate(-49.5536) scale(55.5006 55.0198)">
<stop stop-color="white" stop-opacity="0"/>
<stop offset="0.747346" stop-color="white"/>
</radialGradient>
<radialGradient id="paint1_angular" cx="0" cy="0" r="1" gradientUnits="userSpaceOnUse" gradientTransform="translate(128.108 128) rotate(23.8843) scale(71.3711 71.299)">
<stop offset="0.192465" stop-color="white" stop-opacity="0"/>
<stop offset="0.949454" stop-color="white"/>
</radialGradient>
<radialGradient id="paint2_angular" cx="0" cy="0" r="1" gradientUnits="userSpaceOnUse" gradientTransform="translate(128.175 128) rotate(23.8738) scale(87.5235 87.4059)">
<stop offset="0.195278" stop-color="white" stop-opacity="0"/>
<stop offset="0.954152" stop-color="white"/>
</radialGradient>
</defs>
</svg>
