<svg width="318" height="157" viewBox="0 0 318 157" fill="none" xmlns="http://www.w3.org/2000/svg">
<g filter="url(#filter0_d)">
<path d="M15.1159 10.976V2.976H8.03916L7.17566 9.99984L15.1159 10.976ZM9.21188 59L1.27165 58.0238L0.168138 67H9.21188V59ZM20.2999 59V67H27.3696L28.2391 59.9839L20.2999 59ZM22.3879 42.152V34.152H15.3181L14.4486 41.1681L22.3879 42.152ZM42.9799 37.904L37.5475 32.0312L37.5344 32.0434L37.5213 32.0556L42.9799 37.904ZM43.7719 15.008L38.115 20.6649L38.115 20.6649L43.7719 15.008ZM25.1239 20.048V12.048H18.0761L17.1877 19.0395L25.1239 20.048ZM34.6999 21.848L29.1646 27.6239L29.1857 27.6441L29.2069 27.6641L34.6999 21.848ZM34.4119 30.992L28.8821 25.2109L28.8179 25.2723L28.755 25.3351L34.4119 30.992ZM23.4679 33.08L15.5317 32.0715L14.387 41.08H23.4679V33.08ZM7.17566 9.99984L1.27165 58.0238L17.1521 59.9762L23.0561 11.9522L7.17566 9.99984ZM9.21188 67H20.2999V51H9.21188V67ZM28.2391 59.9839L30.3271 43.1359L14.4486 41.1681L12.3606 58.0161L28.2391 59.9839ZM22.3879 50.152H28.7239V34.152H22.3879V50.152ZM28.7239 50.152C38.3086 50.152 44.5078 47.421 48.4384 43.7524L37.5213 32.0556C37.1319 32.419 35.1232 34.152 28.7239 34.152V50.152ZM48.4122 43.7768C53.3471 39.212 55.6599 32.2205 55.6599 25.304H39.6599C39.6599 29.0435 38.3726 31.268 37.5475 32.0312L48.4122 43.7768ZM55.6599 25.304C55.6599 18.2796 53.0843 13.0067 49.4287 9.35114L38.115 20.6649C38.5198 21.0696 38.8712 21.5559 39.1366 22.1958C39.4023 22.8361 39.6599 23.8181 39.6599 25.304H55.6599ZM49.4287 9.35115C42.9903 2.91274 34.6223 2.976 31.3159 2.976V18.976C34.7774 18.976 36.7774 19.3273 38.115 20.6649L49.4287 9.35115ZM31.3159 2.976H15.1159V18.976H31.3159V2.976ZM25.1239 28.048H28.4359V12.048H25.1239V28.048ZM28.4359 28.048C28.7375 28.048 29.0148 28.0549 29.2774 28.0744C29.5439 28.0942 29.7423 28.1234 29.8773 28.1521C30.0174 28.1819 30.0092 28.1943 29.8986 28.1438C29.7814 28.0902 29.4949 27.9404 29.1646 27.6239L40.2351 16.0721C37.8797 13.8148 35.111 12.9072 33.2045 12.5019C31.2406 12.0844 29.4476 12.048 28.4359 12.048V28.048ZM29.2069 27.6641C28.7644 27.2462 28.4971 26.7469 28.3696 26.3547C28.2627 26.0258 28.2839 25.8682 28.2839 26.024H44.2839C44.2839 23.6466 43.7869 19.4263 40.1929 16.0319L29.2069 27.6641ZM28.2839 26.024C28.2839 26.1995 28.2632 26.2206 28.2915 26.1241C28.3314 25.988 28.4818 25.5937 28.8821 25.2109L39.9417 36.7731C44.031 32.8616 44.2839 27.8645 44.2839 26.024H28.2839ZM28.755 25.3351C29.1469 24.9433 29.475 24.9036 29.2637 24.9537C29.1502 24.9806 28.947 25.0164 28.6214 25.0424C28.295 25.0685 27.9109 25.08 27.4279 25.08V41.08C29.7308 41.08 35.6477 41.0699 40.0687 36.6488L28.755 25.3351ZM27.4279 25.08H23.4679V41.08H27.4279V25.08ZM31.4041 34.0885L33.0601 21.0565L17.1877 19.0395L15.5317 32.0715L31.4041 34.0885ZM56.319 10.976V2.976H49.2423L48.3788 9.99984L56.319 10.976ZM50.415 59L42.4748 58.0238L41.3713 67H50.415V59ZM76.479 59V67H83.5547L84.4191 59.9772L76.479 59ZM77.631 49.64L85.5711 50.6172L86.676 41.64H77.631V49.64ZM62.655 49.64L54.7147 48.6641L53.6116 57.64H62.655V49.64ZM67.407 10.976L75.3473 11.9519L76.4504 2.976H67.407V10.976ZM48.3788 9.99984L42.4748 58.0238L58.3552 59.9762L64.2592 11.9522L48.3788 9.99984ZM50.415 67H76.479V51H50.415V67ZM84.4191 59.9772L85.5711 50.6172L69.6909 48.6628L68.5389 58.0228L84.4191 59.9772ZM77.631 41.64H62.655V57.64H77.631V41.64ZM70.5953 50.6159L75.3473 11.9519L59.4668 10.0001L54.7147 48.6641L70.5953 50.6159ZM67.407 2.976H56.319V18.976H67.407V2.976ZM116.279 59L108.555 61.0842L110.151 67H116.279V59ZM127.655 59V67H138.085L135.381 56.9264L127.655 59ZM114.767 10.976L122.493 8.90244L120.903 2.976H114.767V10.976ZM104.543 10.976V2.976H99.7189L97.4675 7.24216L104.543 10.976ZM79.1987 59L72.1235 55.2662L65.9311 67H79.1987V59ZM91.1507 59V67H96.095L98.3061 62.5777L91.1507 59ZM95.6867 49.928V41.928H90.7424L88.5313 46.3503L95.6867 49.928ZM113.831 49.928L121.554 47.8438L119.958 41.928H113.831V49.928ZM99.8627 41.432L92.6409 37.9901L87.1878 49.432H99.8627V41.432ZM107.927 24.512L115.723 22.7204L110.582 0.345768L100.705 21.0701L107.927 24.512ZM111.815 41.432V49.432H121.861L119.611 39.6404L111.815 41.432ZM116.279 67H127.655V51H116.279V67ZM135.381 56.9264L122.493 8.90244L107.04 13.0496L119.928 61.0736L135.381 56.9264ZM114.767 2.976H104.543V18.976H114.767V2.976ZM97.4675 7.24216L72.1235 55.2662L86.2739 62.7338L111.618 14.7098L97.4675 7.24216ZM79.1987 67H91.1507V51H79.1987V67ZM98.3061 62.5777L102.842 53.5057L88.5313 46.3503L83.9953 55.4223L98.3061 62.5777ZM95.6867 57.928H113.831V41.928H95.6867V57.928ZM106.107 52.0122L108.555 61.0842L124.002 56.9158L121.554 47.8438L106.107 52.0122ZM107.084 44.8739L115.148 27.9539L100.705 21.0701L92.6409 37.9901L107.084 44.8739ZM100.13 26.3036L104.018 43.2236L119.611 39.6404L115.723 22.7204L100.13 26.3036ZM111.815 33.432H99.8627V49.432H111.815V33.432ZM140.344 59L132.403 58.0297L131.307 67H140.344V59ZM151.432 59V67H158.514L159.373 59.9703L151.432 59ZM154.168 36.608L147.905 31.6298L146.5 33.3969L146.227 35.6377L154.168 36.608ZM174.544 10.976L180.806 15.9542L191.123 2.976H174.544V10.976ZM161.008 10.976V2.976H157.065L154.663 6.10276L161.008 10.976ZM149.56 25.88L142.481 29.6074L148.298 40.655L155.904 30.7532L149.56 25.88ZM141.712 10.976L148.79 7.24862L146.54 2.976H141.712V10.976ZM129.04 10.976V2.976H115.536L122.023 14.8192L129.04 10.976ZM143.08 36.608L151.021 37.5783L151.333 35.0227L150.096 32.7648L143.08 36.608ZM140.344 67H151.432V51H140.344V67ZM159.373 59.9703L162.109 37.5783L146.227 35.6377L143.491 58.0297L159.373 59.9703ZM160.43 41.5862L180.806 15.9542L168.281 5.99777L147.905 31.6298L160.43 41.5862ZM174.544 2.976H161.008V18.976H174.544V2.976ZM154.663 6.10276L143.215 21.0068L155.904 30.7532L167.352 15.8492L154.663 6.10276ZM156.638 22.1526L148.79 7.24862L134.633 14.7034L142.481 29.6074L156.638 22.1526ZM141.712 2.976H129.04V18.976H141.712V2.976ZM122.023 14.8192L136.063 40.4512L150.096 32.7648L136.056 7.13276L122.023 14.8192ZM135.139 35.6377L132.403 58.0297L148.285 59.9703L151.021 37.5783L135.139 35.6377ZM179.788 10.976V2.976H172.711L171.848 9.99984L179.788 10.976ZM173.884 59L165.944 58.0238L164.84 67H173.884V59ZM199.948 59V67H207.023L207.888 59.9772L199.948 59ZM201.1 49.64L209.04 50.6172L210.145 41.64H201.1V49.64ZM186.124 49.64L178.184 48.6641L177.08 57.64H186.124V49.64ZM190.876 10.976L198.816 11.9519L199.919 2.976H190.876V10.976ZM171.848 9.99984L165.944 58.0238L181.824 59.9762L187.728 11.9522L171.848 9.99984ZM173.884 67H199.948V51H173.884V67ZM207.888 59.9772L209.04 50.6172L193.16 48.6628L192.008 58.0228L207.888 59.9772ZM201.1 41.64H186.124V57.64H201.1V41.64ZM194.064 50.6159L198.816 11.9519L182.936 10.0001L178.184 48.6641L194.064 50.6159ZM190.876 2.976H179.788V18.976H190.876V2.976ZM212.277 10.976V2.976H205.2L204.337 9.99984L212.277 10.976ZM206.373 59L198.433 58.0238L197.329 67H206.373V59ZM217.461 59V67H224.538L225.401 59.9762L217.461 59ZM223.365 10.976L231.305 11.9522L232.409 2.976H223.365V10.976ZM204.337 9.99984L198.433 58.0238L214.313 59.9762L220.217 11.9522L204.337 9.99984ZM206.373 67H217.461V51H206.373V67ZM225.401 59.9762L231.305 11.9522L215.425 9.99984L209.521 58.0238L225.401 59.9762ZM223.365 2.976H212.277V18.976H223.365V2.976ZM263.013 14.648L269.605 19.1802L273.858 12.9949L267.956 8.35745L263.013 14.648ZM236.157 14.432L230.553 8.72253L230.527 8.74871L230.5 8.77514L236.157 14.432ZM241.773 37.688L244.809 30.2867L244.659 30.2251L244.507 30.1697L241.773 37.688ZM244.581 38.84L241.545 46.2413L241.577 46.2547L241.61 46.2678L244.581 38.84ZM248.397 41L242.74 46.6568L242.74 46.6569L248.397 41ZM247.749 48.776L252.495 55.2164L252.578 55.1547L252.661 55.0908L247.749 48.776ZM236.805 48.704L232.445 55.4115L232.519 55.4597L232.594 55.5061L236.805 48.704ZM232.773 44.888L239.213 40.1424L232.962 31.6579L226.471 39.9606L232.773 44.888ZM226.581 52.808L220.279 47.8806L216.09 53.2376L220.703 58.2342L226.581 52.808ZM232.989 57.92L229.158 64.9432L229.191 64.9612L229.224 64.9788L232.989 57.92ZM256.317 55.4L261.921 61.1095L261.947 61.0833L261.974 61.0569L256.317 55.4ZM258.693 35.6L264.94 30.6024L264.921 30.5788L264.902 30.5553L258.693 35.6ZM252.357 30.992L255.752 23.7483L255.731 23.7383L255.709 23.7283L252.357 30.992ZM249.549 29.696L252.901 22.4323L252.88 22.4226L252.859 22.4131L249.549 29.696ZM244.869 27.176L250.075 21.1019L249.946 20.9909L249.812 20.8854L244.869 27.176ZM244.869 20.48L249.812 26.7705L249.884 26.7138L249.955 26.6554L244.869 20.48ZM257.469 22.712L252.102 28.6443L258.882 34.7785L264.061 27.2442L257.469 22.712ZM267.956 8.35745C261.14 3.00274 254.485 1.896 249.117 1.896V17.896C251.957 17.896 254.806 18.3733 258.07 20.9385L267.956 8.35745ZM249.117 1.896C244.249 1.896 236.675 2.71413 230.553 8.72253L241.761 20.1415C243.415 18.5179 245.777 17.896 249.117 17.896V1.896ZM230.5 8.77514C226.863 12.4125 223.837 17.9893 223.837 25.304H239.837C239.837 22.6827 240.843 21.0595 241.814 20.0889L230.5 8.77514ZM223.837 25.304C223.837 30.0507 225.28 34.9029 229.262 39.0092L240.748 27.8708C240.345 27.4553 240.164 27.1195 240.058 26.8332C239.942 26.522 239.837 26.0503 239.837 25.304H223.837ZM229.262 39.0092C232.835 42.6943 237.876 44.7836 239.039 45.2063L244.507 30.1697C244.534 30.1794 243.807 29.8933 242.857 29.3629C241.876 28.8145 241.133 28.2679 240.748 27.8708L229.262 39.0092ZM238.737 45.0893L241.545 46.2413L247.617 31.4387L244.809 30.2867L238.737 45.0893ZM241.61 46.2678C242.525 46.6338 242.955 46.8825 243.078 46.9585C243.135 46.9941 243.115 46.9856 243.04 46.9263C242.957 46.8612 242.853 46.7696 242.74 46.6568L254.054 35.3432C252.733 34.0223 250.786 32.7058 247.552 31.4122L241.61 46.2678ZM242.74 46.6569C242.667 46.5833 242.386 46.2904 242.142 45.8017C241.876 45.2701 241.765 44.7331 241.765 44.312H257.765C257.765 39.7139 255.502 36.7911 254.054 35.3431L242.74 46.6569ZM241.765 44.312C241.765 44.0669 241.873 43.2112 242.837 42.4612L252.661 55.0908C256.217 52.3248 257.765 48.1571 257.765 44.312H241.765ZM243.003 42.3356C243.133 42.24 243.233 42.18 243.291 42.1479C243.321 42.1312 243.343 42.1197 243.357 42.1127C243.372 42.1057 243.379 42.1024 243.38 42.1021C243.38 42.1019 243.375 42.1042 243.364 42.1084C243.353 42.1127 243.337 42.1186 243.316 42.1256C243.274 42.14 243.218 42.1572 243.15 42.1753C243.008 42.2127 242.85 42.2438 242.697 42.2643C242.541 42.2854 242.443 42.288 242.421 42.288V58.288C245.06 58.288 249.265 57.5964 252.495 55.2164L243.003 42.3356ZM242.421 42.288C242.196 42.288 241.926 42.2514 241.643 42.1686C241.355 42.0846 241.137 41.9772 241.016 41.9019L232.594 55.5061C235.301 57.1816 238.765 58.288 242.421 58.288V42.288ZM241.165 41.9964C240.558 41.6018 239.671 40.7633 239.213 40.1424L226.333 49.6336C227.891 51.7487 230.172 53.9342 232.445 55.4115L241.165 41.9964ZM226.471 39.9606L220.279 47.8806L232.883 57.7354L239.075 49.8154L226.471 39.9606ZM220.703 58.2342C222.879 60.5922 225.852 63.14 229.158 64.9432L236.82 50.8968C235.374 50.108 233.739 48.7678 232.459 47.3818L220.703 58.2342ZM229.224 64.9788C233.969 67.5093 238.182 68.08 242.565 68.08V52.08C239.892 52.08 238.489 51.7867 236.754 50.8612L229.224 64.9788ZM242.565 68.08C248.264 68.08 255.816 67.1013 261.921 61.1095L250.713 49.6905C249.042 51.3307 246.658 52.08 242.565 52.08V68.08ZM261.974 61.0569C266.327 56.7035 269.141 50.1852 269.141 43.088H253.141C253.141 46.0708 251.923 48.4804 250.66 49.7431L261.974 61.0569ZM269.141 43.088C269.141 38.4355 267.955 34.3715 264.94 30.6024L252.446 40.5976C252.887 41.1485 253.141 41.5485 253.141 43.088H269.141ZM264.902 30.5553C261.901 26.8617 258.453 25.0142 255.752 23.7483L248.962 38.2357C250.869 39.1298 251.741 39.7303 252.484 40.6447L264.902 30.5553ZM255.709 23.7283L252.901 22.4323L246.197 36.9597L249.005 38.2557L255.709 23.7283ZM252.859 22.4131C251.581 21.8318 250.895 21.5203 250.376 21.2517C249.927 21.019 249.939 20.9847 250.075 21.1019L239.663 33.25C241.743 35.0336 244.332 36.1123 246.239 36.9789L252.859 22.4131ZM249.812 20.8854C249.943 20.989 250.343 21.3357 250.695 21.9849C251.074 22.6829 251.213 23.3915 251.213 23.936H235.213C235.213 28.3349 237.423 31.4992 239.926 33.4665L249.812 20.8854ZM251.213 23.936C251.213 24.5866 251.061 25.0926 250.882 25.4668C250.704 25.839 250.386 26.3194 249.812 26.7705L239.926 14.1894C236.925 16.5479 235.213 20.2668 235.213 23.936H251.213ZM249.955 26.6554C249.572 26.9706 249.244 27.1344 249.069 27.2098C248.894 27.2854 248.799 27.3038 248.818 27.2995C248.833 27.2962 248.9 27.2832 249.02 27.2723C249.137 27.2616 249.269 27.256 249.405 27.256V11.256C248.348 11.256 246.902 11.3351 245.348 11.6805C243.857 12.0118 241.725 12.7057 239.783 14.3046L249.955 26.6554ZM249.405 27.256C249.583 27.256 249.869 27.2828 250.261 27.4323C250.649 27.5806 251.282 27.9028 252.102 28.6443L262.836 16.7797C258.314 12.6885 253.512 11.256 249.405 11.256V27.256ZM264.061 27.2442L269.605 19.1802L256.421 10.1158L250.877 18.1798L264.061 27.2442ZM299.791 20.336V28.336H306.867L307.731 21.3132L299.791 20.336ZM300.943 10.976L308.883 11.9532L309.988 2.976H300.943V10.976ZM268.975 10.976V2.976H261.899L261.035 9.99875L268.975 10.976ZM267.823 20.336L259.883 19.3588L258.778 28.336H267.823V20.336ZM278.263 20.336L286.203 21.3119L287.306 12.336H278.263V20.336ZM273.511 59L265.571 58.0241L264.467 67H273.511V59ZM284.599 59V67H291.676L292.539 59.9759L284.599 59ZM289.351 20.336V12.336H282.274L281.411 19.3601L289.351 20.336ZM307.731 21.3132L308.883 11.9532L293.003 9.99876L291.851 19.3588L307.731 21.3132ZM300.943 2.976H268.975V18.976H300.943V2.976ZM261.035 9.99875L259.883 19.3588L275.763 21.3132L276.915 11.9532L261.035 9.99875ZM267.823 28.336H278.263V12.336H267.823V28.336ZM270.323 19.3601L265.571 58.0241L281.451 59.9759L286.203 21.3119L270.323 19.3601ZM273.511 67H284.599V51H273.511V67ZM292.539 59.9759L297.291 21.3119L281.411 19.3601L276.659 58.0241L292.539 59.9759ZM289.351 28.336H299.791V12.336H289.351V28.336ZM80.4818 94.648L87.0741 99.1802L91.3265 92.9949L85.4243 88.3574L80.4818 94.648ZM53.6257 94.432L48.022 88.7225L47.9953 88.7487L47.9689 88.7751L53.6257 94.432ZM59.2418 117.688L62.2782 110.287L62.1281 110.225L61.9757 110.17L59.2418 117.688ZM62.0498 118.84L59.0133 126.241L59.0459 126.255L59.0786 126.268L62.0498 118.84ZM65.8658 121L60.2089 126.657L60.2089 126.657L65.8658 121ZM65.2178 128.776L69.9633 135.216L70.0471 135.155L70.1293 135.091L65.2178 128.776ZM54.2738 128.704L49.9138 135.412L49.9879 135.46L50.0629 135.506L54.2738 128.704ZM50.2417 124.888L56.6822 120.142L50.4305 111.658L43.9393 119.961L50.2417 124.888ZM44.0498 132.808L37.7473 127.881L33.5591 133.238L38.1713 138.234L44.0498 132.808ZM50.4578 137.92L46.6269 144.943L46.6599 144.961L46.693 144.979L50.4578 137.92ZM73.7858 135.4L79.3895 141.109L79.4162 141.083L79.4426 141.057L73.7858 135.4ZM76.1618 115.6L82.4087 110.602L82.3898 110.579L82.3707 110.555L76.1618 115.6ZM69.8258 110.992L73.2212 103.748L73.1997 103.738L73.1782 103.728L69.8258 110.992ZM67.0178 109.696L70.3702 102.432L70.3492 102.423L70.3282 102.413L67.0178 109.696ZM62.3378 107.176L67.5441 101.102L67.4145 100.991L67.2803 100.885L62.3378 107.176ZM62.3378 100.48L67.2803 106.771L67.3525 106.714L67.4234 106.655L62.3378 100.48ZM74.9378 102.712L69.5704 108.644L76.3503 114.778L81.5301 107.244L74.9378 102.712ZM85.4243 88.3574C78.6092 83.0027 71.9541 81.896 66.5858 81.896V97.896C69.4254 97.896 72.2743 98.3733 75.5392 100.939L85.4243 88.3574ZM66.5858 81.896C61.7179 81.896 54.1438 82.7141 48.022 88.7225L59.2295 100.141C60.8837 98.5179 63.2456 97.896 66.5858 97.896V81.896ZM47.9689 88.7751C44.3316 92.4125 41.3058 97.9893 41.3058 105.304H57.3057C57.3057 102.683 58.3119 101.06 59.2826 100.089L47.9689 88.7751ZM41.3058 105.304C41.3058 110.051 42.7487 114.903 46.7305 119.009L58.2169 107.871C57.814 107.455 57.6327 107.119 57.5265 106.833C57.4111 106.522 57.3057 106.05 57.3057 105.304H41.3058ZM46.7305 119.009C50.304 122.694 55.3452 124.784 56.5078 125.206L61.9757 110.17C62.0024 110.179 61.2759 109.893 60.3262 109.363C59.3446 108.814 58.602 108.268 58.2169 107.871L46.7305 119.009ZM56.2053 125.089L59.0133 126.241L65.0862 111.439L62.2782 110.287L56.2053 125.089ZM59.0786 126.268C59.9935 126.634 60.4239 126.883 60.5463 126.959C60.6035 126.994 60.5834 126.986 60.5084 126.926C60.426 126.861 60.3217 126.77 60.2089 126.657L71.5226 115.343C70.2018 114.022 68.255 112.706 65.0209 111.412L59.0786 126.268ZM60.2089 126.657C60.1353 126.583 59.8547 126.29 59.6103 125.802C59.3445 125.27 59.2337 124.733 59.2337 124.312H75.2337C75.2337 119.714 72.9706 116.791 71.5226 115.343L60.2089 126.657ZM59.2337 124.312C59.2337 124.067 59.3419 123.211 60.3062 122.461L70.1293 135.091C73.6856 132.325 75.2337 128.157 75.2337 124.312H59.2337ZM60.4722 122.336C60.6019 122.24 60.702 122.18 60.7594 122.148C60.7893 122.131 60.8118 122.12 60.826 122.113C60.8403 122.106 60.8479 122.102 60.8484 122.102C60.849 122.102 60.8438 122.104 60.8327 122.108C60.8216 122.113 60.8058 122.119 60.7851 122.126C60.7429 122.14 60.6871 122.157 60.6186 122.175C60.477 122.213 60.3192 122.244 60.1662 122.264C60.0094 122.285 59.9114 122.288 59.8897 122.288V138.288C62.5286 138.288 66.7334 137.596 69.9633 135.216L60.4722 122.336ZM59.8897 122.288C59.6643 122.288 59.3943 122.251 59.1113 122.169C58.824 122.085 58.6063 121.977 58.4846 121.902L50.0629 135.506C52.7695 137.182 56.2334 138.288 59.8897 138.288V122.288ZM58.6337 121.996C58.0266 121.602 57.1397 120.763 56.6822 120.142L43.8013 129.634C45.3598 131.749 47.6409 133.934 49.9138 135.412L58.6337 121.996ZM43.9393 119.961L37.7473 127.881L50.3522 137.735L56.5442 129.815L43.9393 119.961ZM38.1713 138.234C40.3479 140.592 43.3212 143.14 46.6269 144.943L54.2886 130.897C52.8423 130.108 51.2076 128.768 49.9282 127.382L38.1713 138.234ZM46.693 144.979C51.4376 147.509 55.6504 148.08 60.0338 148.08V132.08C57.3611 132.08 55.9579 131.787 54.2225 130.861L46.693 144.979ZM60.0338 148.08C65.7329 148.08 73.2846 147.101 79.3895 141.109L68.182 129.691C66.5109 131.331 64.1266 132.08 60.0338 132.08V148.08ZM79.4426 141.057C83.7959 136.704 86.6097 130.185 86.6097 123.088H70.6097C70.6097 126.071 69.3916 128.48 68.1289 129.743L79.4426 141.057ZM86.6097 123.088C86.6097 118.436 85.424 114.372 82.4087 110.602L69.9148 120.598C70.3555 121.148 70.6097 121.548 70.6097 123.088H86.6097ZM82.3707 110.555C79.3697 106.862 75.9217 105.014 73.2212 103.748L66.4303 118.236C68.3378 119.13 69.2098 119.73 69.9528 120.645L82.3707 110.555ZM73.1782 103.728L70.3702 102.432L63.6653 116.96L66.4733 118.256L73.1782 103.728ZM70.3282 102.413C69.0494 101.832 68.3632 101.52 67.8448 101.252C67.3956 101.019 67.4073 100.985 67.5441 101.102L57.1314 113.25C59.2122 115.034 61.8008 116.112 63.7073 116.979L70.3282 102.413ZM67.2803 100.885C67.4121 100.989 67.8119 101.336 68.164 101.985C68.5426 102.683 68.6817 103.392 68.6817 103.936H52.6818C52.6818 108.335 54.8913 111.499 57.3952 113.467L67.2803 100.885ZM68.6817 103.936C68.6817 104.587 68.5294 105.093 68.3506 105.467C68.1729 105.839 67.8545 106.319 67.2803 106.771L57.3952 94.1894C54.3935 96.5479 52.6818 100.267 52.6818 103.936H68.6817ZM67.4234 106.655C67.0408 106.971 66.7127 107.134 66.5378 107.21C66.3624 107.285 66.2678 107.304 66.2872 107.299C66.3022 107.296 66.3685 107.283 66.4884 107.272C66.6054 107.262 66.7375 107.256 66.8737 107.256V91.256C65.817 91.256 64.3706 91.3351 62.8163 91.6805C61.3256 92.0118 59.1936 92.7057 57.2521 94.3046L67.4234 106.655ZM66.8737 107.256C67.0514 107.256 67.3377 107.283 67.7297 107.432C68.1181 107.581 68.7509 107.903 69.5704 108.644L80.3051 96.7797C75.7832 92.6885 70.9807 91.256 66.8737 91.256V107.256ZM81.5301 107.244L87.0741 99.1802L73.8894 90.1158L68.3454 98.1798L81.5301 107.244ZM117.404 139L109.68 141.084L111.276 147H117.404V139ZM128.78 139V147H139.21L136.506 136.926L128.78 139ZM115.892 90.976L123.618 88.9024L122.028 82.976H115.892V90.976ZM105.668 90.976V82.976H100.844L98.5925 87.2422L105.668 90.976ZM80.3237 139L73.2485 135.266L67.0561 147H80.3237V139ZM92.2757 139V147H97.22L99.4311 142.578L92.2757 139ZM96.8117 129.928V121.928H91.8674L89.6563 126.35L96.8117 129.928ZM114.956 129.928L122.679 127.844L121.083 121.928H114.956V129.928ZM100.988 121.432L93.7659 117.99L88.3128 129.432H100.988V121.432ZM109.052 104.512L116.848 102.72L111.707 80.3458L101.83 101.07L109.052 104.512ZM112.94 121.432V129.432H122.986L120.736 119.64L112.94 121.432ZM117.404 147H128.78V131H117.404V147ZM136.506 136.926L123.618 88.9024L108.165 93.0496L121.053 141.074L136.506 136.926ZM115.892 82.976H105.668V98.976H115.892V82.976ZM98.5925 87.2422L73.2485 135.266L87.3989 142.734L112.743 94.7098L98.5925 87.2422ZM80.3237 147H92.2757V131H80.3237V147ZM99.4311 142.578L103.967 133.506L89.6563 126.35L85.1203 135.422L99.4311 142.578ZM96.8117 137.928H114.956V121.928H96.8117V137.928ZM107.232 132.012L109.68 141.084L125.127 136.916L122.679 127.844L107.232 132.012ZM108.209 124.874L116.273 107.954L101.83 101.07L93.7659 117.99L108.209 124.874ZM101.255 106.304L105.143 123.224L120.736 119.64L116.848 102.72L101.255 106.304ZM112.94 113.432H100.988V129.432H112.94V113.432ZM131.156 90.976V82.976H120.405L123.493 93.2737L131.156 90.976ZM145.556 139L137.893 141.298L139.603 147H145.556V139ZM153.188 139V147H157.936L160.21 142.832L153.188 139ZM179.396 90.976L186.418 94.8083L192.875 82.976H179.396V90.976ZM167.012 90.976V82.976H162.144L159.907 87.2988L167.012 90.976ZM151.1 121.72L143.384 123.834L148.794 143.579L158.204 125.397L151.1 121.72ZM142.676 90.976L150.391 88.8619L148.779 82.976H142.676V90.976ZM123.493 93.2737L137.893 141.298L153.219 136.702L138.819 88.6783L123.493 93.2737ZM145.556 147H153.188V131H145.556V147ZM160.21 142.832L186.418 94.8083L172.373 87.1437L146.165 135.168L160.21 142.832ZM179.396 82.976H167.012V98.976H179.396V82.976ZM159.907 87.2988L143.995 118.043L158.204 125.397L174.117 94.6532L159.907 87.2988ZM158.815 119.606L150.391 88.8619L134.96 93.0901L143.384 123.834L158.815 119.606ZM142.676 82.976H131.156V98.976H142.676V82.976ZM211.417 90.976L219.357 91.9532L220.462 82.976H211.417V90.976ZM184.921 90.976V82.976H177.844L176.98 89.9998L184.921 90.976ZM179.017 139L171.076 138.024L169.973 147H179.017V139ZM205.801 139V147H212.876L213.741 139.977L205.801 139ZM206.953 129.64L214.893 130.617L215.998 121.64H206.953V129.64ZM190.969 129.64L183.027 128.674L181.937 137.64H190.969V129.64ZM192.265 118.984V110.984H185.179L184.323 118.018L192.265 118.984ZM207.385 118.984V126.984H214.46L215.325 119.961L207.385 118.984ZM208.537 109.624L216.477 110.601L217.582 101.624H208.537V109.624ZM193.417 109.624L185.477 108.639L184.363 117.624H193.417V109.624ZM194.569 100.336V92.336H187.5L186.629 99.3513L194.569 100.336ZM210.265 100.336V108.336H217.34L218.205 101.313L210.265 100.336ZM211.417 82.976H184.921V98.976H211.417V82.976ZM176.98 89.9998L171.076 138.024L186.957 139.976L192.861 91.9522L176.98 89.9998ZM179.017 147H205.801V131H179.017V147ZM213.741 139.977L214.893 130.617L199.012 128.663L197.86 138.023L213.741 139.977ZM206.953 121.64H190.969V137.64H206.953V121.64ZM198.91 130.606L200.206 119.95L184.323 118.018L183.027 128.674L198.91 130.606ZM192.265 126.984H207.385V110.984H192.265V126.984ZM215.325 119.961L216.477 110.601L200.596 108.647L199.444 118.007L215.325 119.961ZM208.537 101.624H193.417V117.624H208.537V101.624ZM201.356 110.609L202.508 101.321L186.629 99.3513L185.477 108.639L201.356 110.609ZM194.569 108.336H210.265V92.336H194.569V108.336ZM218.205 101.313L219.357 91.9532L203.476 89.9988L202.324 99.3588L218.205 101.313ZM221.061 90.976V82.976H213.984L213.121 89.9998L221.061 90.976ZM215.157 139L207.217 138.024L206.113 147H215.157V139ZM251.733 132.376L246.25 126.55L246.24 126.56L246.229 126.57L251.733 132.376ZM253.461 97.096L259.118 91.4391V91.4391L253.461 97.096ZM230.997 100.336V92.336H223.92L223.057 99.3605L230.997 100.336ZM244.389 103.72L238.823 109.466L238.832 109.475L244.389 103.72ZM243.021 125.968L248.336 131.947L248.346 131.939L248.356 131.93L243.021 125.968ZM227.397 129.64L219.457 128.665L218.354 137.64H227.397V129.64ZM213.121 89.9998L207.217 138.024L223.097 139.976L229.001 91.9522L213.121 89.9998ZM215.157 147H229.917V131H215.157V147ZM229.917 147C239.188 147 249.396 145.615 257.237 138.182L246.229 126.57C242.982 129.649 238.071 131 229.917 131V147ZM257.216 138.202C260.801 134.828 267.221 126.873 267.221 113.08H251.221C251.221 121.319 247.562 125.316 246.25 126.55L257.216 138.202ZM267.221 113.08C267.221 103.611 263.93 96.2516 259.118 91.4391L247.804 102.753C249.328 104.276 251.221 107.429 251.221 113.08H267.221ZM259.118 91.4391C251.278 83.5992 240.326 82.976 235.101 82.976V98.976C239.812 98.976 244.844 99.7928 247.804 102.753L259.118 91.4391ZM235.101 82.976H221.061V98.976H235.101V82.976ZM230.997 108.336H234.381V92.336H230.997V108.336ZM234.381 108.336C236.932 108.336 238.544 109.196 238.823 109.466L249.956 97.9741C245.626 93.7797 239.318 92.336 234.381 92.336V108.336ZM238.832 109.475C238.989 109.627 239.845 110.717 239.845 113.368H255.845C255.845 107.523 253.965 101.845 249.946 97.9648L238.832 109.475ZM239.845 113.368C239.845 117.212 238.429 119.342 237.687 120.006L248.356 131.93C253.085 127.698 255.845 120.9 255.845 113.368H239.845ZM237.706 119.989C237.038 120.583 236.143 121.017 234.909 121.294C233.628 121.581 232.259 121.64 230.781 121.64V137.64C234.049 137.64 241.998 137.581 248.336 131.947L237.706 119.989ZM230.781 121.64H227.397V137.64H230.781V121.64ZM235.337 130.615L238.938 101.311L223.057 99.3605L219.457 128.665L235.337 130.615Z" fill="#47FFDE"/>
</g>
<defs>
<filter id="filter0_d" x="0.167969" y="0.345703" width="317.82" height="155.734" filterUnits="userSpaceOnUse" color-interpolation-filters="sRGB">
<feFlood flood-opacity="0" result="BackgroundImageFix"/>
<feColorMatrix in="SourceAlpha" type="matrix" values="0 0 0 0 0 0 0 0 0 0 0 0 0 0 0 0 0 0 127 0"/>
<feOffset dx="8" dy="8"/>
<feColorMatrix type="matrix" values="0 0 0 0 1 0 0 0 0 0.317647 0 0 0 0 0.529412 0 0 0 1 0"/>
<feBlend mode="normal" in2="BackgroundImageFix" result="effect1_dropShadow"/>
<feBlend mode="normal" in="SourceGraphic" in2="effect1_dropShadow" result="shape"/>
</filter>
</defs>
</svg>
