<svg width="291" height="159" viewBox="0 0 291 159" fill="none" xmlns="http://www.w3.org/2000/svg">
<g filter="url(#filter0_d)">
<path d="M64.6297 20.04V28.04H71.7054L72.5698 21.0172L64.6297 20.04ZM65.9097 9.64L73.8498 10.6172L74.9547 1.64H65.9097V9.64ZM30.3897 9.64V1.64H23.3139L22.4496 8.66275L30.3897 9.64ZM29.1097 20.04L21.1696 19.0628L20.0647 28.04H29.1097V20.04ZM40.7097 20.04L48.6499 21.0159L49.7531 12.04H40.7097V20.04ZM35.4297 63L27.4894 62.0241L26.3863 71H35.4297V63ZM47.7497 63V71H54.8266L55.6899 63.9759L47.7497 63ZM53.0297 20.04V12.04H45.9527L45.0894 19.0641L53.0297 20.04ZM72.5698 21.0172L73.8498 10.6172L57.9696 8.66276L56.6896 19.0628L72.5698 21.0172ZM65.9097 1.64H30.3897V17.64H65.9097V1.64ZM22.4496 8.66275L21.1696 19.0628L37.0498 21.0172L38.3298 10.6172L22.4496 8.66275ZM29.1097 28.04H40.7097V12.04H29.1097V28.04ZM32.7694 19.0641L27.4894 62.0241L43.3699 63.9759L48.6499 21.0159L32.7694 19.0641ZM35.4297 71H47.7497V55H35.4297V71ZM55.6899 63.9759L60.9699 21.0159L45.0894 19.0641L39.8094 62.0241L55.6899 63.9759ZM53.0297 28.04H64.6297V12.04H53.0297V28.04ZM72.3866 9.64V1.64H65.3098L64.4463 8.66384L72.3866 9.64ZM65.8266 63L57.8863 62.0238L56.7828 71H65.8266V63ZM78.1466 63V71H85.2322L86.088 63.9663L78.1466 63ZM80.7066 41.96L87.5296 37.7832L75.539 18.196L72.7651 40.9937L80.7066 41.96ZM93.5866 63L86.7635 67.1768L89.1039 71H93.5866V63ZM107.987 63V71H122.539L114.741 58.7131L107.987 63ZM94.2266 41.32L92.7394 33.4594L81.1535 35.6514L87.4721 45.6069L94.2266 41.32ZM102.707 37L108.263 42.7552L108.314 42.7065L108.363 42.6569L102.707 37ZM103.267 14.44L97.3965 19.8753L97.4431 19.9257L97.4907 19.9752L103.267 14.44ZM83.5066 19.24V11.24H76.4491L75.569 18.2424L83.5066 19.24ZM92.0666 20.52L87.7067 27.2275L87.7551 27.2591L87.8041 27.2899L92.0666 20.52ZM91.9066 31.96L96.8181 38.2748L96.8181 38.2748L91.9066 31.96ZM81.6666 33.88L73.729 32.8824L72.5982 41.88H81.6666V33.88ZM64.4463 8.66384L57.8863 62.0238L73.7668 63.9762L80.3268 10.6162L64.4463 8.66384ZM65.8266 71H78.1466V55H65.8266V71ZM86.088 63.9663L88.648 42.9263L72.7651 40.9937L70.2051 62.0337L86.088 63.9663ZM73.8835 46.1368L86.7635 67.1768L100.41 58.8232L87.5296 37.7832L73.8835 46.1368ZM93.5866 71H107.987V55H93.5866V71ZM114.741 58.7131L100.981 37.0331L87.4721 45.6069L101.232 67.2869L114.741 58.7131ZM95.7137 49.1806C100.052 48.3597 104.713 46.1828 108.263 42.7552L97.1498 31.2448C96.0598 32.2972 94.3207 33.1603 92.7394 33.4594L95.7137 49.1806ZM108.363 42.6569C112.65 38.37 115.107 32.265 115.107 25.32H99.1066C99.1066 28.455 98.0428 30.35 97.0497 31.3431L108.363 42.6569ZM115.107 25.32C115.107 17.6781 112.268 12.2709 109.042 8.90476L97.4907 19.9752C97.9448 20.4491 99.1066 21.9218 99.1066 25.32H115.107ZM109.137 9.00473C102.677 2.02871 94.5157 1.64 89.1066 1.64V17.64C93.9374 17.64 95.8558 18.2113 97.3965 19.8753L109.137 9.00473ZM89.1066 1.64H72.3866V17.64H89.1066V1.64ZM83.5066 27.24H85.3466V11.24H83.5066V27.24ZM85.3466 27.24C86.5748 27.24 87.3436 27.2975 87.83 27.3793C88.317 27.4611 88.1372 27.5074 87.7067 27.2275L96.4265 13.8125C92.6296 11.3445 88.0676 11.24 85.3466 11.24V27.24ZM87.8041 27.2899C87.6152 27.171 87.3852 26.981 87.1689 26.7147C86.9567 26.4536 86.8185 26.1942 86.7343 25.985C86.5854 25.6146 86.6266 25.4558 86.6266 25.72H102.627C102.627 22.9388 101.932 17.2777 96.3291 13.7501L87.8041 27.2899ZM86.6266 25.72C86.6266 25.9521 86.6117 26.101 86.599 26.1833C86.5867 26.2629 86.5803 26.2552 86.6062 26.1875C86.6345 26.1136 86.689 26.001 86.7779 25.879C86.8686 25.7547 86.9537 25.6773 86.995 25.6452L96.8181 38.2748C101.684 34.4905 102.627 29.2778 102.627 25.72H86.6266ZM86.995 25.6452C87.1821 25.4997 87.1422 25.6069 86.5954 25.7222C86.072 25.8327 85.4239 25.88 84.7066 25.88V41.88C86.8593 41.88 92.3598 41.7424 96.8181 38.2748L86.995 25.6452ZM84.7066 25.88H81.6666V41.88H84.7066V25.88ZM89.6041 34.8776L91.4441 20.2376L75.569 18.2424L73.729 32.8824L89.6041 34.8776ZM150.18 63L142.457 65.0842L144.053 71H150.18V63ZM162.82 63V71H173.25L170.547 60.9264L162.82 63ZM148.5 9.64L156.227 7.56644L154.636 1.64H148.5V9.64ZM137.14 9.64V1.64H132.317L130.065 5.90616L137.14 9.64ZM108.98 63L101.905 59.2662L95.7127 71H108.98V63ZM122.26 63V71H127.205L129.416 66.5777L122.26 63ZM127.3 52.92V44.92H122.356L120.145 49.3423L127.3 52.92ZM147.46 52.92L155.184 50.8358L153.588 44.92H147.46V52.92ZM131.94 43.48L124.719 40.0381L119.265 51.48H131.94V43.48ZM140.9 24.68L148.697 22.8884L143.556 0.513768L133.679 21.2381L140.9 24.68ZM145.22 43.48V51.48H155.267L153.017 41.6884L145.22 43.48ZM150.18 71H162.82V55H150.18V71ZM170.547 60.9264L156.227 7.56644L140.774 11.7136L155.094 65.0736L170.547 60.9264ZM148.5 1.64H137.14V17.64H148.5V1.64ZM130.065 5.90616L101.905 59.2662L116.056 66.7338L144.216 13.3738L130.065 5.90616ZM108.98 71H122.26V55H108.98V71ZM129.416 66.5777L134.456 56.4977L120.145 49.3423L115.105 59.4223L129.416 66.5777ZM127.3 60.92H147.46V44.92H127.3V60.92ZM139.737 55.0042L142.457 65.0842L157.904 60.9158L155.184 50.8358L139.737 55.0042ZM139.162 46.9219L148.122 28.1219L133.679 21.2381L124.719 40.0381L139.162 46.9219ZM133.104 26.4716L137.424 45.2716L153.017 41.6884L148.697 22.8884L133.104 26.4716ZM145.22 35.48H131.94V51.48H145.22V35.48ZM207.499 48.04L215.442 48.9969L217.805 29.385L202.461 41.826L207.499 48.04ZM184.379 25L190.232 30.4538L190.26 30.4241L190.287 30.3942L184.379 25ZM210.379 25.32L204.722 30.9769L216.411 42.666L218.325 26.2462L210.379 25.32ZM211.899 12.28L219.845 13.2062L220.451 8.00717L215.93 5.36977L211.899 12.28ZM175.419 16.76L181.076 22.4169L181.076 22.4169L175.419 16.76ZM174.139 57.08L168.482 62.7369L168.522 62.7767L168.562 62.816L174.139 57.08ZM205.899 61.32L209.477 68.4754L213.327 66.5504L213.842 62.2769L205.899 61.32ZM202.461 41.826C200.458 43.4496 197.942 44.68 195.019 44.68V60.68C202.657 60.68 208.62 57.4304 212.537 54.254L202.461 41.826ZM195.019 44.68C191.987 44.68 190.113 43.5798 189.396 42.8631L178.082 54.1769C182.166 58.2602 188.291 60.68 195.019 60.68V44.68ZM189.396 42.8631C188.638 42.1049 187.579 40.1271 187.579 37.56H171.579C171.579 43.9529 174.04 50.1351 178.082 54.1769L189.396 42.8631ZM187.579 37.56C187.579 35.0372 188.528 32.2828 190.232 30.4538L178.526 19.5462C173.67 24.7572 171.579 31.6028 171.579 37.56H187.579ZM190.287 30.3942C191.751 28.791 193.513 27.96 197.019 27.96V11.96C190.285 11.96 183.727 13.849 178.471 19.6058L190.287 30.3942ZM197.019 27.96C201.34 27.96 203.504 29.7586 204.722 30.9769L216.036 19.6631C212.934 16.5614 206.938 11.96 197.019 11.96V27.96ZM218.325 26.2462L219.845 13.2062L203.953 11.3538L202.433 24.3938L218.325 26.2462ZM215.93 5.36977C213.327 3.85147 206.952 0.439997 196.779 0.439997V16.44C203.086 16.44 206.631 18.4685 207.868 19.1902L215.93 5.36977ZM196.779 0.439997C184.774 0.439997 175.653 5.21247 169.762 11.1031L181.076 22.4169C184.145 19.3475 189.264 16.44 196.779 16.44V0.439997ZM169.762 11.1031C163.256 17.6093 158.939 27.264 158.939 38.6H174.939C174.939 31.376 177.662 25.8307 181.076 22.4169L169.762 11.1031ZM158.939 38.6C158.939 50.3562 163.813 58.0673 168.482 62.7369L179.796 51.4231C177.585 49.2127 174.939 45.4038 174.939 38.6H158.939ZM168.562 62.816C172.507 66.6509 180.246 72.2 192.939 72.2V56.2C185.472 56.2 181.531 53.1091 179.716 51.344L168.562 62.816ZM192.939 72.2C201.493 72.2 207.071 69.6785 209.477 68.4754L202.321 54.1646C201.208 54.7215 198.145 56.2 192.939 56.2V72.2ZM213.842 62.2769L215.442 48.9969L199.557 47.0831L197.957 60.3631L213.842 62.2769ZM233.457 9.64L241.398 10.6077L242.491 1.64H233.457V9.64ZM221.137 9.64V1.64H214.06L213.196 8.66384L221.137 9.64ZM214.577 63L206.636 62.0238L205.533 71H214.577V63ZM226.897 63V71H233.976L234.837 63.9729L226.897 63ZM229.857 38.84L236.516 34.4075L224.544 16.4187L221.916 37.8671L229.857 38.84ZM245.937 63L239.277 67.4325L241.651 71H245.937V63ZM261.457 63V71H277.049L267.955 58.334L261.457 63ZM241.697 35.48L235.753 30.1252L231.44 34.9122L235.198 40.146L241.697 35.48ZM264.977 9.64L270.92 14.9948L282.952 1.64H264.977V9.64ZM250.257 9.64V1.64H246.625L244.235 4.37349L250.257 9.64ZM230.737 31.96L222.795 30.9922L219.652 56.787L236.759 37.2265L230.737 31.96ZM233.457 1.64H221.137V17.64H233.457V1.64ZM213.196 8.66384L206.636 62.0238L222.517 63.9762L229.077 10.6162L213.196 8.66384ZM214.577 71H226.897V55H214.577V71ZM234.837 63.9729L237.797 39.8129L221.916 37.8671L218.956 62.0271L234.837 63.9729ZM223.197 43.2725L239.277 67.4325L252.596 58.5675L236.516 34.4075L223.197 43.2725ZM245.937 71H261.457V55H245.937V71ZM267.955 58.334L248.195 30.814L235.198 40.146L254.958 67.666L267.955 58.334ZM247.64 40.8348L270.92 14.9948L259.033 4.28523L235.753 30.1252L247.64 40.8348ZM264.977 1.64H250.257V17.64H264.977V1.64ZM244.235 4.37349L224.715 26.6935L236.759 37.2265L256.279 14.9065L244.235 4.37349ZM238.678 32.9278L241.398 10.6077L225.515 8.67224L222.795 30.9922L238.678 32.9278ZM55.0631 143L47.3394 145.084L48.9357 151H55.0631V143ZM67.7031 143V151H78.1331L75.4297 140.926L67.7031 143ZM53.3831 89.64L61.1097 87.5664L59.5193 81.64H53.3831V89.64ZM42.0231 89.64V81.64H37.1993L34.9479 85.9062L42.0231 89.64ZM13.8631 143L6.78793 139.266L0.595555 151H13.8631V143ZM27.1431 143V151H32.0874L34.2985 146.578L27.1431 143ZM32.1831 132.92V124.92H27.2389L25.0277 129.342L32.1831 132.92ZM52.3431 132.92L60.0669 130.836L58.4705 124.92H52.3431V132.92ZM36.8231 123.48L29.6014 120.038L24.1482 131.48H36.8231V123.48ZM45.7831 104.68L53.5799 102.888L48.4385 80.5138L38.5614 101.238L45.7831 104.68ZM50.1031 123.48V131.48H60.1499L57.8999 121.688L50.1031 123.48ZM55.0631 151H67.7031V135H55.0631V151ZM75.4297 140.926L61.1097 87.5664L45.6565 91.7136L59.9765 145.074L75.4297 140.926ZM53.3831 81.64H42.0231V97.64H53.3831V81.64ZM34.9479 85.9062L6.78793 139.266L20.9383 146.734L49.0983 93.3738L34.9479 85.9062ZM13.8631 151H27.1431V135H13.8631V151ZM34.2985 146.578L39.3385 136.498L25.0277 129.342L19.9877 139.422L34.2985 146.578ZM32.1831 140.92H52.3431V124.92H32.1831V140.92ZM44.6194 135.004L47.3394 145.084L62.7869 140.916L60.0669 130.836L44.6194 135.004ZM44.0449 126.922L53.0049 108.122L38.5614 101.238L29.6014 120.038L44.0449 126.922ZM37.9863 106.472L42.3063 125.272L57.8999 121.688L53.5799 102.888L37.9863 106.472ZM50.1031 115.48H36.8231V131.48H50.1031V115.48ZM80.0038 89.64V81.64H72.927L72.0635 88.6638L80.0038 89.64ZM73.4438 143L65.5035 142.024L64.4 151H73.4438V143ZM114.084 135.64L108.601 129.814L108.59 129.824L108.58 129.834L114.084 135.64ZM116.004 96.44L121.661 90.7831L121.661 90.7831L116.004 96.44ZM91.0438 100.04V92.04H83.9664L83.1034 99.0645L91.0438 100.04ZM105.924 103.8L100.357 109.546L100.367 109.555L105.924 103.8ZM104.404 128.52L109.719 134.499L109.728 134.491L109.738 134.482L104.404 128.52ZM87.0438 132.6L79.1034 131.625L78.0008 140.6H87.0438V132.6ZM72.0635 88.6638L65.5035 142.024L81.384 143.976L87.944 90.6162L72.0635 88.6638ZM73.4438 151H89.8438V135H73.4438V151ZM89.8438 151C100.082 151 111.131 149.463 119.588 141.446L108.58 129.834C104.717 133.497 98.9652 135 89.8438 135V151ZM119.567 141.466C123.423 137.836 130.404 129.217 130.404 114.2H114.404C114.404 123.663 110.184 128.324 108.601 129.814L119.567 141.466ZM130.404 114.2C130.404 103.891 126.825 95.9476 121.661 90.7831L110.347 102.097C112.222 103.972 114.404 107.709 114.404 114.2H130.404ZM121.661 90.7831C113.221 82.3432 101.381 81.64 95.6038 81.64V97.64C100.867 97.64 106.787 98.5368 110.347 102.097L121.661 90.7831ZM95.6038 81.64H80.0038V97.64H95.6038V81.64ZM91.0438 108.04H94.8038V92.04H91.0438V108.04ZM94.8038 108.04C97.7708 108.04 99.8231 109.028 100.357 109.546L111.49 98.0541C106.904 93.6117 100.157 92.04 94.8038 92.04V108.04ZM100.367 109.555C100.756 109.931 101.764 111.397 101.764 114.52H117.764C117.764 108.203 115.731 102.149 111.481 98.0448L100.367 109.555ZM101.764 114.52C101.764 118.996 100.116 121.622 99.0694 122.558L109.738 134.482C114.772 129.978 117.764 122.684 117.764 114.52H101.764ZM99.0888 122.541C97.2192 124.203 94.3755 124.6 90.8038 124.6V140.6C94.432 140.6 102.948 140.517 109.719 134.499L99.0888 122.541ZM90.8038 124.6H87.0438V140.6H90.8038V124.6ZM94.9841 133.575L98.9841 101.015L83.1034 99.0645L79.1034 131.625L94.9841 133.575ZM134.769 89.64V81.64H127.693L126.829 88.6638L134.769 89.64ZM128.209 143L120.269 142.024L119.166 151H128.209V143ZM168.849 135.64L163.366 129.814L163.356 129.824L163.345 129.834L168.849 135.64ZM170.769 96.44L176.426 90.7831L176.426 90.7831L170.769 96.44ZM145.809 100.04V92.04H138.732L137.869 99.0645L145.809 100.04ZM160.689 103.8L155.123 109.546L155.133 109.555L160.689 103.8ZM159.169 128.52L164.484 134.499L164.494 134.491L164.504 134.482L159.169 128.52ZM141.809 132.6L133.869 131.625L132.766 140.6H141.809V132.6ZM126.829 88.6638L120.269 142.024L136.15 143.976L142.71 90.6162L126.829 88.6638ZM128.209 151H144.609V135H128.209V151ZM144.609 151C154.848 151 165.897 149.463 174.353 141.446L163.345 129.834C159.482 133.497 153.731 135 144.609 135V151ZM174.332 141.466C178.189 137.836 185.169 129.217 185.169 114.2H169.169C169.169 123.663 164.95 128.324 163.366 129.814L174.332 141.466ZM185.169 114.2C185.169 103.891 181.591 95.9476 176.426 90.7831L165.113 102.097C166.988 103.972 169.169 107.709 169.169 114.2H185.169ZM176.426 90.7831C167.986 82.3432 156.147 81.64 150.369 81.64V97.64C155.632 97.64 161.552 98.5368 165.113 102.097L176.426 90.7831ZM150.369 81.64H134.769V97.64H150.369V81.64ZM145.809 108.04H149.569V92.04H145.809V108.04ZM149.569 108.04C152.536 108.04 154.589 109.028 155.123 109.546L166.256 98.0541C161.67 93.6117 154.922 92.04 149.569 92.04V108.04ZM155.133 109.555C155.522 109.931 156.529 111.397 156.529 114.52H172.529C172.529 108.203 170.497 102.149 166.246 98.0448L155.133 109.555ZM156.529 114.52C156.529 118.996 154.881 121.622 153.835 122.558L164.504 134.482C169.537 129.978 172.529 122.684 172.529 114.52H156.529ZM153.854 122.541C151.985 124.203 149.141 124.6 145.569 124.6V140.6C149.198 140.6 157.714 140.517 164.484 134.499L153.854 122.541ZM145.569 124.6H141.809V140.6H145.569V124.6ZM149.75 133.575L153.75 101.015L137.869 99.0645L133.869 131.625L149.75 133.575ZM218.975 89.64L226.915 90.6172L228.02 81.64H218.975V89.64ZM189.535 89.64V81.64H182.458L181.595 88.6638L189.535 89.64ZM182.975 143L175.035 142.024L173.931 151H182.975V143ZM212.735 143V151H219.811L220.675 143.977L212.735 143ZM214.015 132.6L221.955 133.577L223.06 124.6H214.015V132.6ZM196.255 132.6L188.314 131.634L187.223 140.6H196.255V132.6ZM197.695 120.76V112.76H190.609L189.754 119.794L197.695 120.76ZM214.495 120.76V128.76H221.571L222.435 121.737L214.495 120.76ZM215.775 110.36L223.715 111.337L224.82 102.36H215.775V110.36ZM198.975 110.36L191.036 109.375L189.921 118.36H198.975V110.36ZM200.255 100.04V92.04H193.186L192.316 99.0553L200.255 100.04ZM217.695 100.04V108.04H224.771L225.635 101.017L217.695 100.04ZM218.975 81.64H189.535V97.64H218.975V81.64ZM181.595 88.6638L175.035 142.024L190.915 143.976L197.475 90.6162L181.595 88.6638ZM182.975 151H212.735V135H182.975V151ZM220.675 143.977L221.955 133.577L206.075 131.623L204.795 142.023L220.675 143.977ZM214.015 124.6H196.255V140.6H214.015V124.6ZM204.196 133.566L205.636 121.726L189.754 119.794L188.314 131.634L204.196 133.566ZM197.695 128.76H214.495V112.76H197.695V128.76ZM222.435 121.737L223.715 111.337L207.835 109.383L206.555 119.783L222.435 121.737ZM215.775 102.36H198.975V118.36H215.775V102.36ZM206.914 111.345L208.194 101.025L192.316 99.0553L191.036 109.375L206.914 111.345ZM200.255 108.04H217.695V92.04H200.255V108.04ZM225.635 101.017L226.915 90.6172L211.035 88.6628L209.755 99.0628L225.635 101.017ZM229.691 89.64V81.64H222.615L221.751 88.6638L229.691 89.64ZM223.131 143L215.191 142.024L214.088 151H223.131V143ZM263.771 135.64L258.288 129.814L258.278 129.824L258.267 129.834L263.771 135.64ZM265.691 96.44L271.348 90.7831L271.348 90.7831L265.691 96.44ZM240.731 100.04V92.04H233.654L232.791 99.0645L240.731 100.04ZM255.611 103.8L250.045 109.546L250.054 109.555L255.611 103.8ZM254.091 128.52L259.406 134.499L259.416 134.491L259.426 134.482L254.091 128.52ZM236.731 132.6L228.791 131.625L227.688 140.6H236.731V132.6ZM221.751 88.6638L215.191 142.024L231.071 143.976L237.631 90.6162L221.751 88.6638ZM223.131 151H239.531V135H223.131V151ZM239.531 151C249.77 151 260.818 149.463 269.275 141.446L258.267 129.834C254.404 133.497 248.653 135 239.531 135V151ZM269.254 141.466C273.111 137.836 280.091 129.217 280.091 114.2H264.091C264.091 123.663 259.872 128.324 258.288 129.814L269.254 141.466ZM280.091 114.2C280.091 103.891 276.513 95.9476 271.348 90.7831L260.034 102.097C261.91 103.972 264.091 107.709 264.091 114.2H280.091ZM271.348 90.7831C262.908 82.3432 251.068 81.64 245.291 81.64V97.64C250.554 97.64 256.474 98.5368 260.034 102.097L271.348 90.7831ZM245.291 81.64H229.691V97.64H245.291V81.64ZM240.731 108.04H244.491V92.04H240.731V108.04ZM244.491 108.04C247.458 108.04 249.511 109.028 250.045 109.546L261.178 98.0541C256.592 93.6117 249.844 92.04 244.491 92.04V108.04ZM250.054 109.555C250.444 109.931 251.451 111.397 251.451 114.52H267.451C267.451 108.203 265.419 102.149 261.168 98.0448L250.054 109.555ZM251.451 114.52C251.451 118.996 249.803 121.622 248.757 122.558L259.426 134.482C264.459 129.978 267.451 122.684 267.451 114.52H251.451ZM248.776 122.541C246.907 124.203 244.063 124.6 240.491 124.6V140.6C244.12 140.6 252.636 140.517 259.406 134.499L248.776 122.541ZM240.491 124.6H236.731V140.6H240.491V124.6ZM244.672 133.575L248.672 101.015L232.791 99.0645L228.791 131.625L244.672 133.575Z" fill="#47FFDE"/>
</g>
<defs>
<filter id="filter0_d" x="0.595459" y="0.439941" width="290.356" height="158.56" filterUnits="userSpaceOnUse" color-interpolation-filters="sRGB">
<feFlood flood-opacity="0" result="BackgroundImageFix"/>
<feColorMatrix in="SourceAlpha" type="matrix" values="0 0 0 0 0 0 0 0 0 0 0 0 0 0 0 0 0 0 127 0"/>
<feOffset dx="8" dy="8"/>
<feColorMatrix type="matrix" values="0 0 0 0 1 0 0 0 0 0.317647 0 0 0 0 0.529412 0 0 0 1 0"/>
<feBlend mode="normal" in2="BackgroundImageFix" result="effect1_dropShadow"/>
<feBlend mode="normal" in="SourceGraphic" in2="effect1_dropShadow" result="shape"/>
</filter>
</defs>
</svg>
