<svg width="318" height="155" viewBox="0 0 318 155" fill="none" xmlns="http://www.w3.org/2000/svg">
<path fill-rule="evenodd" clip-rule="evenodd" d="M15.871 9.08L39.2433 9.07999C42.4618 9.07941 50.151 9.07804 56.3913 14.6346L57.0741 9.08H84.2823L79.5303 47.744H87.1464L107.551 9.08H117.16L119.018 9.07993L154.372 9.08L158.653 17.209L164.897 9.08H207.751L202.999 47.744H208.279L213.032 9.08H240.241L239.679 13.6493C245.545 8.70853 252.419 8 256.949 8C260.656 8 264.978 8.52789 269.542 10.6185L269.731 9.08H317.82L314.699 34.44H304.26L299.508 73.104H272.299L273.66 62.0364C272.586 63.953 271.285 65.6819 269.806 67.1609L269.779 67.1873L269.753 67.2135C263.648 73.2053 256.096 74.184 250.397 74.184C246.013 74.184 241.801 73.6133 237.056 71.0828L237.023 71.0652L236.99 71.0472C235.57 70.2724 234.211 69.3602 232.95 68.3847L232.37 73.104H172.672L177.175 36.4784L169.667 45.9231L166.345 73.104H117.983L115.535 64.032H108.463L103.927 73.104H49.2031L51.6645 53.0831C48.0808 54.9414 43.3907 56.1601 37.2902 56.2506L35.2015 73.104H8L15.871 9.08ZM30.2197 48.256H36.5557C44.5477 48.256 48.6517 46.024 50.8117 44.008C51.6999 43.1865 52.4853 42.1801 53.1469 41.0247C54.6307 38.4335 55.4917 35.093 55.4917 31.408C55.4917 29.6699 55.274 28.1405 54.8964 26.7941C54.2104 24.3477 52.9969 22.5052 51.6037 21.112C47.7157 17.224 42.5317 17.08 39.1477 17.08H22.9477L17.0437 65.104H28.1317L30.2197 48.256ZM42.2437 37.096C43.8997 35.512 44.1157 33.352 44.1157 32.128C44.1157 30.76 43.8277 29.176 42.5317 27.952C40.8037 26.296 37.9237 26.152 36.2677 26.152H32.9557L31.2997 39.184H35.2597C36.6064 39.184 38.0687 39.1146 39.4238 38.7137C40.4596 38.4072 41.4328 37.907 42.2437 37.096ZM58.2469 65.104H84.3109L85.4629 55.744H70.4869L75.2389 17.08H64.1509L58.2469 65.104ZM98.9826 65.104L103.519 56.032H121.663L124.111 65.104H135.487L122.599 17.08H112.375L87.0305 65.104H98.9826ZM119.647 47.536H107.695L115.759 30.616L119.647 47.536ZM141.259 55.7488L142.658 44.2973L133.89 28.2892L141.259 55.7488ZM150.911 42.712L148.175 65.104H159.263L161.999 42.712L182.375 17.08H168.839L157.391 31.984L149.543 17.08H136.871L150.911 42.712ZM181.716 65.104H207.78L208.932 55.744H193.956L198.708 17.08H187.62L181.716 65.104ZM225.293 65.104L231.197 17.08H220.109L214.205 65.104H225.293ZM234.413 58.912C236.141 60.784 238.445 62.728 240.821 64.024C244.061 65.752 246.869 66.184 250.397 66.184C255.293 66.184 260.261 65.32 264.149 61.504C266.957 58.696 268.973 54.232 268.973 49.192C268.973 46.096 268.253 43.864 266.525 41.704C264.653 39.4 262.493 38.176 260.189 37.096L257.381 35.8L257.165 35.7019C254.925 34.6843 253.678 34.1175 252.701 33.28C251.693 32.488 251.045 31.48 251.045 30.04C251.045 28.744 251.693 27.376 252.701 26.584C253.925 25.576 255.869 25.36 257.237 25.36C258.562 25.36 260.157 25.6308 261.89 26.4713C262.984 27.0014 264.131 27.7579 265.301 28.816L270.845 20.752C270.054 20.1309 269.271 19.5878 268.496 19.1134C268.403 19.0562 268.309 18.9999 268.216 18.9446C266.69 18.0402 265.197 17.3997 263.749 16.9525C261.343 16.2096 259.06 16 256.949 16C252.845 16 247.877 16.72 243.989 20.536C241.685 22.84 239.669 26.44 239.669 31.408C239.669 34.432 240.533 37.168 242.837 39.544C245.141 41.92 248.813 43.504 249.605 43.792L252.413 44.944C254.933 45.952 255.869 46.744 256.229 47.104C256.805 47.68 257.597 48.688 257.597 50.416C257.597 52.216 256.877 53.872 255.581 54.88C254.213 55.888 251.909 56.392 250.253 56.392C249.034 56.392 247.84 56.1713 246.756 55.8014C245.983 55.5375 245.266 55.1977 244.637 54.808C243.197 53.872 241.613 52.36 240.605 50.992L234.413 58.912ZM236.001 43.8922L235.954 43.9526L235.966 43.85C235.978 43.8641 235.989 43.8782 236.001 43.8922ZM270.953 34.716C271.557 35.3009 272.154 35.9456 272.734 36.6593L272.753 36.6828L272.772 36.7064C274.303 38.6204 275.362 40.6104 276.034 42.7149L277.051 34.44H271.143L270.953 34.716ZM286.095 26.44L281.343 65.104H292.431L297.183 26.44H307.623L308.775 17.08H276.807L275.655 26.44H286.095ZM99.1584 99.0989L88.4216 114.716C89.0262 115.301 89.6227 115.946 90.2025 116.659L90.2216 116.683L90.2406 116.706C91.0917 117.77 91.7971 118.858 92.3712 119.975L108.676 89.08H118.285H120.143H156.61L161.237 105.965L169.976 89.08H242.933C248.158 89.08 259.11 89.7032 266.95 97.5431C271.762 102.356 275.053 109.715 275.053 119.184C275.053 132.959 268.65 140.91 265.062 144.292C257.222 151.72 247.017 153.104 237.749 153.104H177.805L181.305 124.633L165.767 153.104H147.434H147.042H119.108L116.66 144.032H109.588L105.052 153.104H76.8329C73.6623 153.966 70.5573 154.184 67.8656 154.184C63.4822 154.184 59.2695 153.613 54.5249 151.083L54.4918 151.065L54.4588 151.047C51.153 149.244 48.1798 146.696 46.0032 144.338L41.3909 139.342L53.4696 123.892C50.313 120.062 49.1376 115.692 49.1376 111.408C49.1376 104.093 52.1634 98.5165 55.8008 94.8791L55.8272 94.8527L55.8539 94.8265C61.9756 88.8181 69.5498 88 74.4176 88C79.786 88 86.4411 89.1067 93.2562 94.4614L99.1584 99.0989ZM58.0736 130.992C59.0816 132.36 60.6656 133.872 62.1056 134.808C62.7351 135.198 63.452 135.537 64.2251 135.801C65.3088 136.171 66.503 136.392 67.7216 136.392C69.3776 136.392 71.6816 135.888 73.0496 134.88C74.3456 133.872 75.0656 132.216 75.0656 130.416C75.0656 128.688 74.2736 127.68 73.6976 127.104C73.3376 126.744 72.4016 125.952 69.8816 124.944L67.0736 123.792C66.2816 123.504 62.6096 121.92 60.3056 119.544C58.0016 117.168 57.1376 114.432 57.1376 111.408C57.1376 106.44 59.1536 102.84 61.4576 100.536C65.3456 96.72 70.3136 96 74.4176 96C76.5291 96 78.812 96.2096 81.2175 96.9525C82.6658 97.3997 84.1584 98.0402 85.6847 98.9446C86.5508 99.4578 87.4278 100.056 88.3136 100.752L82.7696 108.816C81.6002 107.758 80.4522 107.001 79.3592 106.471C77.6258 105.631 76.0303 105.36 74.7056 105.36C73.3376 105.36 71.3936 105.576 70.1696 106.584C69.1616 107.376 68.5136 108.744 68.5136 110.04C68.5136 111.48 69.1616 112.488 70.1696 113.28C71.1466 114.117 72.3942 114.684 74.6336 115.702L74.8496 115.8L77.6576 117.096C79.9616 118.176 82.1216 119.4 83.9936 121.704C85.7216 123.864 86.4416 126.096 86.4416 129.192C86.4416 129.968 86.3939 130.73 86.3028 131.474C85.8023 135.567 83.9934 139.128 81.6176 141.504C81.5844 141.537 81.5512 141.569 81.5178 141.601C81.1777 141.929 80.8295 142.235 80.4739 142.519C76.7803 145.477 72.2935 146.184 67.8656 146.184C64.3376 146.184 61.5296 145.752 58.2896 144.024C55.9136 142.728 53.6096 140.784 51.8816 138.912L58.0736 130.992ZM100.108 145.104L104.644 136.032H122.788L125.236 145.104H136.612L123.724 97.08H113.5L88.1555 145.104H100.108ZM120.772 127.536H108.82L116.884 110.616L120.772 127.536ZM174.844 97.08L158.932 127.824L150.508 97.08H138.988L153.388 145.104H161.02L187.228 97.08H174.844ZM186.848 145.104H213.632L214.784 135.744H198.8L200.096 125.088H215.216L216.368 115.728H201.248L202.4 106.44H218.096L219.248 97.08H192.752L186.848 145.104ZM259.565 138.48C262.013 136.176 267.053 130.2 267.053 119.184C267.053 111.624 264.461 106.368 261.293 103.2C255.893 97.8 247.901 97.08 242.933 97.08H228.893L222.989 145.104H237.749C246.461 145.104 254.021 143.736 259.565 138.48ZM252.221 109.824C249.917 107.592 245.957 106.44 242.213 106.44H238.829L235.229 135.744H238.613C239.941 135.744 241.584 135.708 243.328 135.427C245.839 135.022 248.559 134.111 250.853 132.072C253.589 129.624 255.677 125.16 255.677 119.472C255.677 115.224 254.309 111.84 252.221 109.824ZM244.382 126.85C244.825 126.638 245.203 126.389 245.527 126.103C246.271 125.43 247.677 123.302 247.677 119.472C247.677 116.821 246.821 115.731 246.664 115.579L246.655 115.57C246.552 115.471 246.269 115.291 245.825 115.104L244.382 126.85ZM74.1211 113.403C74.1159 113.404 74.1151 113.404 74.1191 113.403L74.1211 113.403Z" fill="#FF3575"/>
<path fill-rule="evenodd" clip-rule="evenodd" d="M7.87102 1.08L31.2433 1.07999C34.4618 1.07941 42.151 1.07804 48.3913 6.6346L49.0741 1.08H76.2823L71.5303 39.744H79.1464L99.5508 1.08H109.16L111.018 1.07993L146.372 1.08L150.653 9.20902L156.897 1.08H199.751L194.999 39.744H200.279L205.032 1.08H232.241L231.679 5.6493C237.545 0.708532 244.419 0 248.949 0C252.656 0 256.978 0.527895 261.542 2.61846L261.731 1.08H309.82L306.699 26.44H296.26L291.508 65.104H264.299L265.66 54.0364C264.586 55.953 263.285 57.6819 261.806 59.1609L261.779 59.1873L261.753 59.2135C255.648 65.2053 248.096 66.184 242.397 66.184C238.013 66.184 233.801 65.6133 229.056 63.0828L229.023 63.0652L228.99 63.0472C227.57 62.2724 226.211 61.3602 224.95 60.3847L224.37 65.104H164.672L169.175 28.4784L161.667 37.9231L158.345 65.104H109.983L107.535 56.032H100.463L95.9268 65.104H41.2031L43.6645 45.0831C40.0808 46.9414 35.3907 48.1601 29.2902 48.2506L27.2015 65.104H0L7.87102 1.08ZM22.2197 40.256H28.5557C36.5477 40.256 40.6517 38.024 42.8117 36.008C43.6999 35.1865 44.4853 34.1801 45.1469 33.0247C46.6307 30.4335 47.4917 27.093 47.4917 23.408C47.4917 21.6699 47.274 20.1405 46.8964 18.7941C46.2104 16.3477 44.9969 14.5052 43.6037 13.112C39.7157 9.224 34.5317 9.08 31.1477 9.08H14.9477L9.04374 57.104H20.1317L22.2197 40.256ZM34.2437 29.096C35.8997 27.512 36.1157 25.352 36.1157 24.128C36.1157 22.76 35.8277 21.176 34.5317 19.952C32.8037 18.296 29.9237 18.152 28.2677 18.152H24.9557L23.2997 31.184H27.2597C28.6064 31.184 30.0687 31.1146 31.4238 30.7137C32.4596 30.4072 33.4328 29.907 34.2437 29.096ZM50.2469 57.104H76.3109L77.4629 47.744H62.4869L67.2389 9.08H56.1509L50.2469 57.104ZM90.9826 57.104L95.5186 48.032H113.663L116.111 57.104H127.487L114.599 9.08H104.375L79.0305 57.104H90.9826ZM111.647 39.536H99.6945L107.759 22.616L111.647 39.536ZM133.259 47.7488L134.658 36.2973L125.89 20.2892L133.259 47.7488ZM142.911 34.712L140.175 57.104H151.263L153.999 34.712L174.375 9.08H160.839L149.391 23.984L141.543 9.08H128.871L142.911 34.712ZM173.716 57.104H199.78L200.932 47.744H185.956L190.708 9.08H179.62L173.716 57.104ZM217.293 57.104L223.197 9.08H212.109L206.205 57.104H217.293ZM226.413 50.912C228.141 52.784 230.445 54.728 232.821 56.024C236.061 57.752 238.869 58.184 242.397 58.184C247.293 58.184 252.261 57.32 256.149 53.504C258.957 50.696 260.973 46.232 260.973 41.192C260.973 38.096 260.253 35.864 258.525 33.704C256.653 31.4 254.493 30.176 252.189 29.096L249.381 27.8L249.165 27.7019C246.925 26.6843 245.678 26.1175 244.701 25.28C243.693 24.488 243.045 23.48 243.045 22.04C243.045 20.744 243.693 19.376 244.701 18.584C245.925 17.576 247.869 17.36 249.237 17.36C250.562 17.36 252.157 17.6308 253.89 18.4713C254.984 19.0014 256.131 19.7579 257.301 20.816L262.845 12.752C262.054 12.1309 261.271 11.5878 260.496 11.1134C260.403 11.0562 260.309 10.9999 260.216 10.9446C258.69 10.0402 257.197 9.39973 255.749 8.95249C253.343 8.20964 251.06 8 248.949 8C244.845 8 239.877 8.72 235.989 12.536C233.685 14.84 231.669 18.44 231.669 23.408C231.669 26.432 232.533 29.168 234.837 31.544C237.141 33.92 240.813 35.504 241.605 35.792L244.413 36.944C246.933 37.952 247.869 38.744 248.229 39.104C248.805 39.68 249.597 40.688 249.597 42.416C249.597 44.216 248.877 45.872 247.581 46.88C246.213 47.888 243.909 48.392 242.253 48.392C241.034 48.392 239.84 48.1713 238.756 47.8014C237.983 47.5375 237.266 47.1977 236.637 46.808C235.197 45.872 233.613 44.36 232.605 42.992L226.413 50.912ZM228.001 35.8922L227.954 35.9526L227.966 35.85C227.978 35.8641 227.989 35.8782 228.001 35.8922ZM262.953 26.716C263.557 27.3009 264.154 27.9456 264.734 28.6593L264.753 28.6828L264.772 28.7064C266.303 30.6204 267.362 32.6104 268.034 34.7149L269.051 26.44H263.143L262.953 26.716ZM278.095 18.44L273.343 57.104H284.431L289.183 18.44H299.623L300.775 9.08H268.807L267.655 18.44H278.095ZM91.1584 91.0989L80.4216 106.716C81.0262 107.301 81.6227 107.946 82.2025 108.659L82.2216 108.683L82.2406 108.706C83.0917 109.77 83.7971 110.858 84.3712 111.975L100.676 81.08H110.285H112.143H148.61L153.237 97.965L161.976 81.08H234.933C240.158 81.08 251.11 81.7032 258.95 89.5431C263.762 94.3556 267.053 101.715 267.053 111.184C267.053 124.959 260.65 132.91 257.062 136.292C249.222 143.72 239.017 145.104 229.749 145.104H169.805L173.305 116.633L157.767 145.104H139.434H139.042H111.108L108.66 136.032H101.588L97.0518 145.104H68.8329C65.6623 145.966 62.5573 146.184 59.8656 146.184C55.4822 146.184 51.2695 145.613 46.5249 143.083L46.4918 143.065L46.4588 143.047C43.153 141.244 40.1798 138.696 38.0032 136.338L33.3909 131.342L45.4696 115.892C42.313 112.062 41.1376 107.692 41.1376 103.408C41.1376 96.0932 44.1634 90.5165 47.8008 86.8791L47.8272 86.8527L47.8539 86.8265C53.9756 80.8181 61.5498 80 66.4176 80C71.786 80 78.4411 81.1067 85.2562 86.4614L91.1584 91.0989ZM50.0736 122.992C51.0816 124.36 52.6656 125.872 54.1056 126.808C54.7351 127.198 55.452 127.537 56.2251 127.801C57.3088 128.171 58.503 128.392 59.7216 128.392C61.3776 128.392 63.6816 127.888 65.0496 126.88C66.3456 125.872 67.0656 124.216 67.0656 122.416C67.0656 120.688 66.2736 119.68 65.6976 119.104C65.3376 118.744 64.4016 117.952 61.8816 116.944L59.0736 115.792C58.2816 115.504 54.6096 113.92 52.3056 111.544C50.0016 109.168 49.1376 106.432 49.1376 103.408C49.1376 98.44 51.1536 94.84 53.4576 92.536C57.3456 88.72 62.3136 88 66.4176 88C68.5291 88 70.812 88.2096 73.2175 88.9525C74.6658 89.3997 76.1584 90.0402 77.6847 90.9446C78.5508 91.4578 79.4278 92.056 80.3136 92.752L74.7696 100.816C73.6002 99.7579 72.4522 99.0013 71.3592 98.4713C69.6258 97.6308 68.0303 97.36 66.7056 97.36C65.3376 97.36 63.3936 97.576 62.1696 98.584C61.1616 99.376 60.5136 100.744 60.5136 102.04C60.5136 103.48 61.1616 104.488 62.1696 105.28C63.1466 106.117 64.3942 106.684 66.6336 107.702L66.8496 107.8L69.6576 109.096C71.9616 110.176 74.1216 111.4 75.9936 113.704C77.7216 115.864 78.4416 118.096 78.4416 121.192C78.4416 121.968 78.3939 122.73 78.3028 123.474C77.8023 127.567 75.9934 131.128 73.6176 133.504C73.5844 133.537 73.5512 133.569 73.5178 133.601C73.1777 133.929 72.8295 134.235 72.4739 134.519C68.7803 137.477 64.2935 138.184 59.8656 138.184C56.3376 138.184 53.5296 137.752 50.2896 136.024C47.9136 134.728 45.6096 132.784 43.8816 130.912L50.0736 122.992ZM92.1076 137.104L96.6436 128.032H114.788L117.236 137.104H128.612L115.724 89.08H105.5L80.1555 137.104H92.1076ZM112.772 119.536H100.82L108.884 102.616L112.772 119.536ZM166.844 89.08L150.932 119.824L142.508 89.08H130.988L145.388 137.104H153.02L179.228 89.08H166.844ZM178.848 137.104H205.632L206.784 127.744H190.8L192.096 117.088H207.216L208.368 107.728H193.248L194.4 98.44H210.096L211.248 89.08H184.752L178.848 137.104ZM251.565 130.48C254.013 128.176 259.053 122.2 259.053 111.184C259.053 103.624 256.461 98.368 253.293 95.2C247.893 89.8 239.901 89.08 234.933 89.08H220.893L214.989 137.104H229.749C238.461 137.104 246.021 135.736 251.565 130.48ZM244.221 101.824C241.917 99.592 237.957 98.44 234.213 98.44H230.829L227.229 127.744H230.613C231.941 127.744 233.584 127.708 235.328 127.427C237.839 127.022 240.559 126.111 242.853 124.072C245.589 121.624 247.677 117.16 247.677 111.472C247.677 107.224 246.309 103.84 244.221 101.824ZM236.382 118.85C236.825 118.638 237.203 118.389 237.527 118.103C238.271 117.43 239.677 115.302 239.677 111.472C239.677 108.821 238.821 107.731 238.664 107.579L238.655 107.57C238.552 107.471 238.269 107.291 237.825 107.104L236.382 118.85ZM66.1211 105.403C66.1159 105.404 66.1151 105.404 66.1191 105.403L66.1211 105.403Z" fill="#47FFDE"/>
</svg>
