<svg width="291" height="159" viewBox="0 0 291 159" fill="none" xmlns="http://www.w3.org/2000/svg">
<g filter="url(#filter0_d)">
<path fill-rule="evenodd" clip-rule="evenodd" d="M64.6297 20.0399L65.9097 9.63994H30.3897L29.1097 20.0399H40.7097L35.4297 62.9999H47.7497L53.0297 20.0399H64.6297ZM60.1067 28.0399H62.0643L56.7828 70.9999H85.2322L85.8742 65.7239L89.104 70.9999H127.205L132.245 60.9199H141.333L144.053 70.9999H173.25L171.792 65.5652C176.217 68.8556 183.085 72.1999 192.939 72.1999C198.406 72.1999 202.657 71.17 205.642 70.1125L205.533 70.9999H233.976L235.169 61.2612L241.651 70.9999H277.049L251.953 36.0477L282.952 1.63994H246.625L241.821 7.13296L242.491 1.63994H214.06L213.746 4.18975C210.431 2.55002 204.78 0.439941 196.779 0.439941C184.774 0.439941 175.653 5.21242 169.762 11.1031C165.96 14.9049 162.906 19.7817 161.024 25.441L154.636 1.63994H143.815L143.556 0.513713L143.019 1.63994H132.317L107.892 47.9218L105.883 44.7558C106.717 44.1452 107.515 43.478 108.263 42.7552L108.314 42.7064L108.363 42.6568C112.65 38.3699 115.107 32.2649 115.107 25.3199C115.107 17.7167 112.297 12.3255 109.091 8.95582C102.639 2.02683 94.5031 1.63994 89.1066 1.63994H23.314L20.0647 28.0399H31.6663L26.3863 70.9999H54.8267L60.1067 28.0399ZM72.3866 9.63994L65.8266 62.9999H78.1466L80.7066 41.9599L93.5866 62.9999H107.987L94.2266 41.3199C96.7327 40.8458 99.4108 39.6835 101.581 37.9788C101.974 37.67 102.351 37.3434 102.707 36.9999C105.347 34.3599 107.107 30.3599 107.107 25.3199C107.107 19.7999 105.107 16.3599 103.267 14.4399C99.2666 10.1199 94.2266 9.63994 89.1066 9.63994H72.3866ZM92.0666 20.5199C90.4666 19.4799 88.1466 19.2399 85.3466 19.2399H83.5066L81.6666 33.8799H84.7066C84.8455 33.8799 84.9895 33.8788 85.1379 33.8761C86.4987 33.8511 88.2277 33.6948 89.828 33.0966C90.5642 32.8213 91.2732 32.4525 91.9066 31.9599C94.0666 30.2799 94.6266 27.9599 94.6266 25.7199C94.6266 24.0399 94.2266 21.8799 92.0666 20.5199ZM122.26 62.9999L127.3 52.9199H147.46L150.18 62.9999H162.82L148.5 9.63994H137.14L108.98 62.9999H122.26ZM145.22 43.4799H131.94L140.9 24.6799L145.22 43.4799ZM211.899 12.2799C209.979 11.1599 205.019 8.43994 196.779 8.43994C187.019 8.43994 179.899 12.2799 175.419 16.7599C170.459 21.7199 166.939 29.3199 166.939 38.5999C166.939 47.8799 170.699 53.6399 174.139 57.0799C177.019 59.8799 182.859 64.1999 192.939 64.1999C199.819 64.1999 204.139 62.1999 205.899 61.3199L207.499 48.0399C205.311 49.8142 202.423 51.501 198.933 52.26C197.702 52.5277 196.396 52.6799 195.019 52.6799C190.139 52.6799 186.139 50.9199 183.739 48.5199C181.339 46.1199 179.579 42.0399 179.579 37.5599C179.579 33.3199 181.099 28.5199 184.379 24.9999C187.739 21.3199 191.899 19.9599 197.019 19.9599C199.252 19.9599 201.186 20.2746 202.855 20.7732C206.509 21.8646 208.896 23.8373 210.379 25.3199L211.899 12.2799ZM209.701 35.9555L204.722 30.9768C203.504 29.7585 201.34 27.9599 197.019 27.9599C193.513 27.9599 191.751 28.791 190.287 30.3941L190.26 30.4241L190.232 30.4537C188.528 32.2827 187.579 35.0372 187.579 37.5599C187.579 40.127 188.638 42.1048 189.396 42.8631C190.113 43.5797 191.987 44.6799 195.019 44.6799C197.942 44.6799 200.458 43.4495 202.461 41.8259L209.701 35.9555ZM214.577 62.9999L221.137 9.63994H233.457L230.737 31.9599L250.257 9.63994H264.977L241.697 35.4799L261.457 62.9999H245.937L229.857 38.8399L226.897 62.9999H214.577ZM48.9357 151L46.2157 140.92H37.1274L32.0874 151H0.595581L37.1994 81.6399H47.9018L48.4386 80.5137L48.6974 81.6399H59.5193L68.7147 115.904L72.9271 81.6399H95.6038C101.381 81.6399 113.221 82.3432 121.661 90.7831C123.238 92.3606 124.668 94.1975 125.893 96.2819L127.693 81.6399H150.369C156.147 81.6399 167.986 82.3432 176.426 90.7831C178.004 92.3606 179.433 94.1975 180.658 96.2819L182.458 81.6399H245.291C251.068 81.6399 262.908 82.3432 271.348 90.7831C276.513 95.9475 280.091 103.891 280.091 114.2C280.091 129.196 273.13 137.812 269.27 141.45C260.814 149.464 249.768 151 239.531 151H173.931L175.209 140.604C174.906 140.914 174.616 141.199 174.341 141.458C165.886 149.465 154.843 151 144.609 151H119.166L120.444 140.604C120.141 140.914 119.85 141.199 119.575 141.458C111.12 149.465 100.077 151 89.8438 151H48.9357ZM53.3832 89.6399H42.0232L13.8632 143H27.1432L32.1832 132.92H52.3432L55.0632 143H67.7032L53.3832 89.6399ZM45.7832 104.68L36.8232 123.48H50.1032L45.7832 104.68ZM89.8438 143C99.5238 143 107.924 141.48 114.084 135.64C116.804 133.08 122.404 126.44 122.404 114.2C122.404 105.8 119.524 99.9599 116.004 96.4399C110.004 90.4399 101.124 89.6399 95.6038 89.6399H80.0038L73.4438 143H89.8438ZM168.849 135.64C171.569 133.08 177.169 126.44 177.169 114.2C177.169 105.8 174.289 99.9599 170.769 96.4399C164.769 90.4399 155.889 89.6399 150.369 89.6399H134.769L128.209 143H144.609C154.289 143 162.689 141.48 168.849 135.64ZM160.689 103.8C158.129 101.32 153.729 100.04 149.569 100.04H145.809L141.809 132.6H145.569C146.811 132.6 148.301 132.571 149.897 132.376C152.927 132.006 156.34 131.035 159.169 128.52C162.209 125.8 164.529 120.84 164.529 114.52C164.529 109.8 163.009 106.04 160.689 103.8ZM150.92 124.053C152.06 123.738 153.042 123.26 153.844 122.55C154.891 121.606 156.529 118.983 156.529 114.52C156.529 111.396 155.522 109.931 155.133 109.555L155.123 109.546C154.818 109.25 154.017 108.801 152.834 108.47L150.92 124.053ZM200.255 100.04H217.695L218.975 89.6399H189.535L182.975 143H212.735L214.015 132.6H196.255L197.695 120.76H214.495L215.775 110.36H198.975L200.255 100.04ZM263.771 135.64C266.491 133.08 272.091 126.44 272.091 114.2C272.091 105.8 269.211 99.9599 265.691 96.4399C259.691 90.4399 250.811 89.6399 245.291 89.6399H229.691L223.131 143H239.531C249.211 143 257.611 141.48 263.771 135.64ZM255.611 103.8C253.051 101.32 248.651 100.04 244.491 100.04H240.731L236.731 132.6H240.491C241.733 132.6 243.223 132.571 244.819 132.376C247.849 132.006 251.262 131.035 254.091 128.52C257.131 125.8 259.451 120.84 259.451 114.52C259.451 109.8 257.931 106.04 255.611 103.8ZM248.766 122.55C249.813 121.606 251.451 118.983 251.451 114.52C251.451 111.396 250.444 109.931 250.055 109.555L250.045 109.546C249.74 109.25 248.939 108.801 247.756 108.47L245.841 124.053C246.982 123.738 247.964 123.26 248.766 122.55ZM100.367 109.555L100.357 109.546C100.052 109.25 99.2517 108.801 98.0683 108.47L96.1539 124.053C97.2947 123.738 98.276 123.26 99.0786 122.55C100.125 121.606 101.764 118.983 101.764 114.52C101.764 111.396 100.756 109.931 100.367 109.555ZM104.404 128.52C107.444 125.8 109.764 120.84 109.764 114.52C109.764 109.8 108.244 106.04 105.924 103.8C103.364 101.32 98.9638 100.04 94.8038 100.04H91.0438L87.0438 132.6H90.8038C92.0458 132.6 93.5354 132.571 95.1314 132.376C98.1612 132.006 101.574 131.035 104.404 128.52Z" fill="#47FFDE"/>
</g>
<defs>
<filter id="filter0_d" x="0.595581" y="0.439941" width="290.356" height="158.56" filterUnits="userSpaceOnUse" color-interpolation-filters="sRGB">
<feFlood flood-opacity="0" result="BackgroundImageFix"/>
<feColorMatrix in="SourceAlpha" type="matrix" values="0 0 0 0 0 0 0 0 0 0 0 0 0 0 0 0 0 0 127 0"/>
<feOffset dx="8" dy="8"/>
<feColorMatrix type="matrix" values="0 0 0 0 1 0 0 0 0 0.317647 0 0 0 0 0.529412 0 0 0 1 0"/>
<feBlend mode="normal" in2="BackgroundImageFix" result="effect1_dropShadow"/>
<feBlend mode="normal" in="SourceGraphic" in2="effect1_dropShadow" result="shape"/>
</filter>
</defs>
</svg>
