<svg width="291" height="159" viewBox="0 0 291 159" fill="none" xmlns="http://www.w3.org/2000/svg">
<path fill-rule="evenodd" clip-rule="evenodd" d="M72.0341 27.6L73.3141 17.2H37.7941L36.5141 27.6H48.1141L42.8341 70.56H55.1541L60.4341 27.6H72.0341ZM67.5111 35.6H69.4687L64.1873 78.56H92.6366L93.2786 73.284L96.5084 78.56H134.609L139.649 68.48H148.737L151.457 78.56H180.655L179.196 73.1253C183.621 76.4156 190.49 79.76 200.344 79.76C205.811 79.76 210.062 78.73 213.046 77.6725L212.937 78.56H241.381L242.574 68.8213L249.056 78.56H284.454L259.357 43.6078L290.356 9.2H254.03L249.226 14.693L249.895 9.2H221.464L221.151 11.7498C217.836 10.1101 212.184 8 204.184 8C192.178 8 183.057 12.7725 177.167 18.6631C173.365 22.4649 170.311 27.3418 168.428 33.001L162.041 9.2H151.219H150.96H150.423H139.721L115.296 55.4818L113.287 52.3159C114.121 51.7053 114.919 51.0381 115.668 50.3152L115.718 50.2665L115.768 50.2169C120.055 45.93 122.511 39.825 122.511 32.88C122.511 25.2767 119.701 19.8856 116.496 16.5159C110.044 9.58689 101.908 9.2 96.511 9.2H30.7184L27.4692 35.6H39.0707L33.7907 78.56H62.2311L67.5111 35.6ZM79.791 17.2L73.231 70.56H85.551L88.111 49.52L100.991 70.56H115.391L101.631 48.88C104.137 48.4059 106.815 47.2436 108.986 45.5388C109.379 45.2301 109.755 44.9035 110.111 44.56C112.751 41.92 114.511 37.92 114.511 32.88C114.511 27.36 112.511 23.92 110.671 22C106.671 17.68 101.631 17.2 96.511 17.2H79.791ZM99.471 28.08C97.871 27.04 95.551 26.8 92.751 26.8H90.911L89.071 41.44H92.111C92.25 41.44 92.3939 41.4388 92.5423 41.4361C93.9031 41.4112 95.6321 41.2549 97.2324 40.6566C97.9687 40.3814 98.6777 40.0126 99.311 39.52C101.471 37.84 102.031 35.52 102.031 33.28C102.031 31.6 101.631 29.44 99.471 28.08ZM129.665 70.56L134.705 60.48H154.865L157.585 70.56H170.225L155.905 17.2H144.545L116.385 70.56H129.665ZM152.625 51.04H139.345L148.305 32.24L152.625 51.04ZM219.304 19.84C217.384 18.72 212.424 16 204.184 16C194.424 16 187.304 19.84 182.824 24.32C177.864 29.28 174.344 36.88 174.344 46.16C174.344 55.44 178.104 61.2 181.544 64.64C184.424 67.44 190.264 71.76 200.344 71.76C207.224 71.76 211.544 69.76 213.304 68.88L214.904 55.6C212.715 57.3742 209.828 59.061 206.337 59.82C205.106 60.0877 203.8 60.24 202.424 60.24C197.544 60.24 193.544 58.48 191.144 56.08C188.744 53.68 186.984 49.6 186.984 45.12C186.984 40.88 188.504 36.08 191.784 32.56C195.144 28.88 199.304 27.52 204.424 27.52C206.656 27.52 208.59 27.8347 210.259 28.3333C213.914 29.4246 216.301 31.3973 217.784 32.88L219.304 19.84ZM217.105 43.5155L212.127 38.5369C210.908 37.3186 208.745 35.52 204.424 35.52C200.917 35.52 199.155 36.351 197.691 37.9542L197.664 37.9841L197.636 38.0138C195.932 39.8428 194.984 42.5972 194.984 45.12C194.984 47.6871 196.042 49.6649 196.8 50.4231C197.517 51.1398 199.391 52.24 202.424 52.24C205.346 52.24 207.863 51.0096 209.865 49.386L217.105 43.5155ZM221.981 70.56L228.541 17.2H240.861L238.141 39.52L257.661 17.2H272.381L249.101 43.04L268.861 70.56H253.341L237.261 46.4L234.301 70.56H221.981ZM56.3402 158.56L53.6202 148.48H44.5318L39.4918 158.56H8L44.6038 89.2H55.3062H56.1018H66.9237L76.1191 123.464L80.3315 89.2H103.008C108.785 89.2 120.625 89.9032 129.065 98.3431C130.643 99.9207 132.072 101.758 133.297 103.842L135.097 89.2H157.774C163.551 89.2 175.391 89.9032 183.831 98.3431C185.408 99.9207 186.838 101.758 188.063 103.842L189.863 89.2H252.696C258.473 89.2 270.313 89.9032 278.753 98.3431C283.917 103.508 287.496 111.451 287.496 121.76C287.496 136.756 280.535 145.372 276.675 149.01C268.219 157.024 257.172 158.56 246.936 158.56H181.336L182.614 148.164C182.311 148.474 182.02 148.759 181.745 149.018C173.29 157.025 162.247 158.56 152.014 158.56H126.57L127.848 148.164C127.545 148.474 127.255 148.759 126.98 149.018C118.524 157.025 107.482 158.56 97.2482 158.56H56.3402ZM60.7876 97.2H49.4276L21.2676 150.56H34.5476L39.5876 140.48H59.7476L62.4676 150.56H75.1076L60.7876 97.2ZM53.1876 112.24L44.2276 131.04H57.5076L53.1876 112.24ZM97.2482 150.56C106.928 150.56 115.328 149.04 121.488 143.2C124.208 140.64 129.808 134 129.808 121.76C129.808 113.36 126.928 107.52 123.408 104C117.408 98 108.528 97.2 103.008 97.2H87.4082L80.8482 150.56H97.2482ZM176.254 143.2C178.974 140.64 184.574 134 184.574 121.76C184.574 113.36 181.694 107.52 178.174 104C172.174 98 163.294 97.2 157.774 97.2H142.174L135.614 150.56H152.014C161.694 150.56 170.094 149.04 176.254 143.2ZM168.094 111.36C165.534 108.88 161.134 107.6 156.974 107.6H153.214L149.214 140.16H152.974C154.216 140.16 155.706 140.131 157.301 139.936C160.331 139.566 163.744 138.595 166.574 136.08C169.614 133.36 171.934 128.4 171.934 122.08C171.934 117.36 170.414 113.6 168.094 111.36ZM158.324 131.613C159.465 131.298 160.446 130.82 161.249 130.11C162.295 129.167 163.934 126.543 163.934 122.08C163.934 118.957 162.926 117.491 162.537 117.115L162.527 117.106C162.222 116.81 161.422 116.361 160.238 116.03L158.324 131.613ZM207.659 107.6H225.099L226.379 97.2H196.939L190.379 150.56H220.139L221.419 140.16H203.659L205.099 128.32H221.899L223.179 117.92H206.379L207.659 107.6ZM271.176 143.2C273.896 140.64 279.496 134 279.496 121.76C279.496 113.36 276.616 107.52 273.096 104C267.096 98 258.216 97.2 252.696 97.2H237.096L230.536 150.56H246.936C256.616 150.56 265.016 149.04 271.176 143.2ZM263.016 111.36C260.456 108.88 256.056 107.6 251.896 107.6H248.136L244.136 140.16H247.896C249.138 140.16 250.627 140.131 252.223 139.936C255.253 139.566 258.666 138.595 261.496 136.08C264.536 133.36 266.856 128.4 266.856 122.08C266.856 117.36 265.336 113.6 263.016 111.36ZM256.171 130.11C257.217 129.167 258.856 126.543 258.856 122.08C258.856 118.957 257.848 117.491 257.459 117.115L257.449 117.106C257.144 116.81 256.344 116.361 255.16 116.03L253.246 131.613C254.387 131.298 255.368 130.82 256.171 130.11ZM107.771 117.115L107.762 117.106C107.457 116.81 106.656 116.361 105.473 116.03L103.558 131.613C104.699 131.298 105.68 130.82 106.483 130.11C107.53 129.167 109.168 126.543 109.168 122.08C109.168 118.957 108.16 117.491 107.771 117.115ZM111.808 136.08C114.848 133.36 117.168 128.4 117.168 122.08C117.168 117.36 115.648 113.6 113.328 111.36C110.768 108.88 106.368 107.6 102.208 107.6H98.4482L94.4482 140.16H98.2082C99.4502 140.16 100.94 140.131 102.536 139.936C105.566 139.566 108.979 138.595 111.808 136.08Z" fill="#FF3575"/>
<path fill-rule="evenodd" clip-rule="evenodd" d="M64.0341 19.6L65.3141 9.2H29.7941L28.5141 19.6H40.1141L34.8341 62.56H47.1541L52.4341 19.6H64.0341ZM59.5111 27.6H61.4687L56.1873 70.56H84.6366L85.2786 65.284L88.5084 70.56H126.609L131.649 60.48H140.737L143.457 70.56H172.655L171.196 65.1253C175.621 68.4156 182.49 71.76 192.344 71.76C197.811 71.76 202.062 70.73 205.046 69.6725L204.937 70.56H233.381L234.574 60.8213L241.056 70.56H276.454L251.357 35.6078L282.356 1.2H246.03L241.226 6.69302L241.895 1.2H213.464L213.151 3.74981C209.836 2.11007 204.184 0 196.184 0C184.178 0 175.057 4.77248 169.167 10.6631C165.365 14.4649 162.311 19.3418 160.428 25.001L154.041 1.2H143.219H142.96H142.423H131.721L107.296 47.4818L105.287 44.3159C106.121 43.7053 106.919 43.0381 107.668 42.3152L107.718 42.2665L107.768 42.2169C112.055 37.93 114.511 31.825 114.511 24.88C114.511 17.2767 111.701 11.8856 108.496 8.51588C102.044 1.58689 93.9075 1.2 88.511 1.2H22.7184L19.4692 27.6H31.0707L25.7907 70.56H54.2311L59.5111 27.6ZM71.791 9.2L65.231 62.56H77.551L80.111 41.52L92.991 62.56H107.391L93.631 40.88C96.1371 40.4059 98.8152 39.2436 100.986 37.5388C101.379 37.2301 101.755 36.9035 102.111 36.56C104.751 33.92 106.511 29.92 106.511 24.88C106.511 19.36 104.511 15.92 102.671 14C98.671 9.68 93.631 9.2 88.511 9.2H71.791ZM91.471 20.08C89.871 19.04 87.551 18.8 84.751 18.8H82.911L81.071 33.44H84.111C84.25 33.44 84.3939 33.4388 84.5423 33.4361C85.9031 33.4112 87.6321 33.2549 89.2324 32.6566C89.9687 32.3814 90.6777 32.0126 91.311 31.52C93.471 29.84 94.031 27.52 94.031 25.28C94.031 23.6 93.631 21.44 91.471 20.08ZM121.665 62.56L126.705 52.48H146.865L149.585 62.56H162.225L147.905 9.2H136.545L108.385 62.56H121.665ZM144.625 43.04H131.345L140.305 24.24L144.625 43.04ZM211.304 11.84C209.384 10.72 204.424 8 196.184 8C186.424 8 179.304 11.84 174.824 16.32C169.864 21.28 166.344 28.88 166.344 38.16C166.344 47.44 170.104 53.2 173.544 56.64C176.424 59.44 182.264 63.76 192.344 63.76C199.224 63.76 203.544 61.76 205.304 60.88L206.904 47.6C204.715 49.3742 201.828 51.061 198.337 51.82C197.106 52.0877 195.8 52.24 194.424 52.24C189.544 52.24 185.544 50.48 183.144 48.08C180.744 45.68 178.984 41.6 178.984 37.12C178.984 32.88 180.504 28.08 183.784 24.56C187.144 20.88 191.304 19.52 196.424 19.52C198.656 19.52 200.59 19.8347 202.259 20.3333C205.914 21.4246 208.301 23.3973 209.784 24.88L211.304 11.84ZM209.105 35.5155L204.127 30.5369C202.908 29.3186 200.745 27.52 196.424 27.52C192.917 27.52 191.155 28.351 189.691 29.9542L189.664 29.9841L189.636 30.0138C187.932 31.8428 186.984 34.5972 186.984 37.12C186.984 39.6871 188.042 41.6649 188.8 42.4231C189.517 43.1398 191.391 44.24 194.424 44.24C197.346 44.24 199.863 43.0096 201.865 41.386L209.105 35.5155ZM213.981 62.56L220.541 9.2H232.861L230.141 31.52L249.661 9.2H264.381L241.101 35.04L260.861 62.56H245.341L229.261 38.4L226.301 62.56H213.981ZM48.3402 150.56L45.6202 140.48H36.5318L31.4918 150.56H0L36.6038 81.2H47.3062H48.1018H58.9237L68.1191 115.464L72.3315 81.2H95.0082C100.785 81.2 112.625 81.9032 121.065 90.3431C122.643 91.9207 124.072 93.7576 125.297 95.842L127.097 81.2H149.774C155.551 81.2 167.391 81.9032 175.831 90.3431C177.408 91.9207 178.838 93.7576 180.063 95.842L181.863 81.2H244.696C250.473 81.2 262.313 81.9032 270.753 90.3431C275.917 95.5076 279.496 103.451 279.496 113.76C279.496 128.756 272.535 137.372 268.675 141.01C260.219 149.024 249.172 150.56 238.936 150.56H173.336L174.614 140.164C174.311 140.474 174.02 140.759 173.745 141.018C165.29 149.025 154.247 150.56 144.014 150.56H118.57L119.848 140.164C119.545 140.474 119.255 140.759 118.98 141.018C110.524 149.025 99.4817 150.56 89.2482 150.56H48.3402ZM52.7876 89.2H41.4276L13.2676 142.56H26.5476L31.5876 132.48H51.7476L54.4676 142.56H67.1076L52.7876 89.2ZM45.1876 104.24L36.2276 123.04H49.5076L45.1876 104.24ZM89.2482 142.56C98.9282 142.56 107.328 141.04 113.488 135.2C116.208 132.64 121.808 126 121.808 113.76C121.808 105.36 118.928 99.52 115.408 96C109.408 90 100.528 89.2 95.0082 89.2H79.4082L72.8482 142.56H89.2482ZM168.254 135.2C170.974 132.64 176.574 126 176.574 113.76C176.574 105.36 173.694 99.52 170.174 96C164.174 90 155.294 89.2 149.774 89.2H134.174L127.614 142.56H144.014C153.694 142.56 162.094 141.04 168.254 135.2ZM160.094 103.36C157.534 100.88 153.134 99.6 148.974 99.6H145.214L141.214 132.16H144.974C146.216 132.16 147.706 132.131 149.301 131.936C152.331 131.566 155.744 130.595 158.574 128.08C161.614 125.36 163.934 120.4 163.934 114.08C163.934 109.36 162.414 105.6 160.094 103.36ZM150.324 123.613C151.465 123.298 152.446 122.82 153.249 122.11C154.295 121.167 155.934 118.543 155.934 114.08C155.934 110.957 154.926 109.491 154.537 109.115L154.527 109.106C154.222 108.81 153.422 108.361 152.238 108.03L150.324 123.613ZM199.659 99.6H217.099L218.379 89.2H188.939L182.379 142.56H212.139L213.419 132.16H195.659L197.099 120.32H213.899L215.179 109.92H198.379L199.659 99.6ZM263.176 135.2C265.896 132.64 271.496 126 271.496 113.76C271.496 105.36 268.616 99.52 265.096 96C259.096 90 250.216 89.2 244.696 89.2H229.096L222.536 142.56H238.936C248.616 142.56 257.016 141.04 263.176 135.2ZM255.016 103.36C252.456 100.88 248.056 99.6 243.896 99.6H240.136L236.136 132.16H239.896C241.138 132.16 242.627 132.131 244.223 131.936C247.253 131.566 250.666 130.595 253.496 128.08C256.536 125.36 258.856 120.4 258.856 114.08C258.856 109.36 257.336 105.6 255.016 103.36ZM248.171 122.11C249.217 121.167 250.856 118.543 250.856 114.08C250.856 110.957 249.848 109.491 249.459 109.115L249.449 109.106C249.144 108.81 248.344 108.361 247.16 108.03L245.246 123.613C246.387 123.298 247.368 122.82 248.171 122.11ZM99.7714 109.115L99.7618 109.106C99.4566 108.81 98.6561 108.361 97.4727 108.03L95.5584 123.613C96.6991 123.298 97.6804 122.82 98.483 122.11C99.5298 121.167 101.168 118.543 101.168 114.08C101.168 110.957 100.16 109.491 99.7714 109.115ZM103.808 128.08C106.848 125.36 109.168 120.4 109.168 114.08C109.168 109.36 107.648 105.6 105.328 103.36C102.768 100.88 98.3682 99.6 94.2082 99.6H90.4482L86.4482 132.16H90.2082C91.4502 132.16 92.9399 132.131 94.5358 131.936C97.5656 131.566 100.979 130.595 103.808 128.08Z" fill="#47FFDE"/>
</svg>
